<svg width="130" height="40" viewBox="0 0 130 40" fill="none" xmlns="http://www.w3.org/2000/svg">
<rect x="0.945815" y="1.52534" width="128.096" height="37.8764" rx="4.76085" fill="#F5F5F5" stroke="black" stroke-width="0.789092"/>
<path d="M29.6889 20.3562C29.6587 17.2735 32.1778 15.7713 32.293 15.7013C30.8635 13.5955 28.6506 13.3098 27.8729 13.2875C26.0144 13.0913 24.213 14.4169 23.2663 14.4177C22.3008 14.4187 20.8419 13.3134 19.2708 13.3474C17.249 13.3809 15.3588 14.5678 14.3232 16.409C12.1859 20.1634 13.7878 25.6761 15.842 28.7071C16.8693 30.1924 18.07 31.8489 19.6391 31.7891C21.1743 31.7246 21.7469 30.797 23.5996 30.7953C25.4353 30.7936 25.9748 31.7831 27.5752 31.7443C29.2229 31.7168 30.2588 30.2494 31.2476 28.7497C32.4316 27.047 32.9061 25.3689 32.9249 25.2828C32.887 25.2694 29.7247 24.0501 29.6889 20.3562ZM26.6569 11.2935C27.4816 10.2473 28.0453 8.82441 27.8871 7.38123C26.6918 7.43594 25.1981 8.22069 24.3382 9.24402C23.5777 10.1458 22.8988 11.6232 23.0759 13.0119C24.4186 13.112 25.7963 12.3235 26.6569 11.2935Z" fill="black"/>
<path d="M51.9463 30.1068L49.7724 30.1089L48.578 26.3838L44.4388 26.3877L43.3079 30.1151L41.1915 30.1172L45.2811 17.427L47.814 17.4246L51.9463 30.1068ZM48.2176 24.8208L47.1375 21.509C47.0233 21.1708 46.8081 20.3741 46.4927 19.1199H46.4545C46.3287 19.6596 46.1274 20.4568 45.8518 21.5103L44.7964 24.8239L48.2176 24.8208ZM62.4695 25.4104C62.4711 26.9662 62.0483 28.1964 61.2 29.1C60.4408 29.9043 59.4962 30.3066 58.3697 30.3076C57.1531 30.3089 56.2776 29.8779 55.7458 29.0128L55.75 33.8125L53.7092 33.8145L53.6998 23.9642C53.6987 22.987 53.672 21.9852 53.6212 20.9576L55.4162 20.9559L55.5315 22.4057H55.5697C56.2493 21.3126 57.2815 20.7653 58.6678 20.764C59.7513 20.7629 60.6562 21.1881 61.3808 22.0407C62.1043 22.8952 62.4685 24.0178 62.4695 25.4104ZM60.3905 25.4869C60.3895 24.5964 60.1878 23.8627 59.7833 23.2845C59.3416 22.6833 58.7485 22.3827 58.0061 22.3835C57.5026 22.3839 57.0452 22.5521 56.6365 22.8832C56.2273 23.2173 55.9596 23.6532 55.8349 24.1928C55.772 24.4445 55.7406 24.6495 55.7406 24.8116L55.7421 26.3378C55.7426 27.0022 55.948 27.5636 56.3583 28.0227C56.7685 28.4799 57.3008 28.709 57.9558 28.7084C58.7244 28.7077 59.3222 28.4108 59.7498 27.822C60.1778 27.2316 60.3916 26.4535 60.3905 25.4869ZM73.0348 25.4004C73.0364 26.9561 72.6136 28.1863 71.7653 29.0899C71.0051 29.8942 70.0614 30.2966 68.9339 30.2976C67.7173 30.2988 66.8418 29.8677 66.3095 29.0027L66.3142 33.8024L64.2735 33.8044L64.264 23.9541C64.263 22.9768 64.2363 21.9751 64.1854 20.9475L65.9805 20.9458L66.0957 22.3957H66.134C66.8125 21.3024 67.8447 20.7552 69.232 20.7539C70.3145 20.7528 71.2194 21.178 71.9461 22.0306C72.6686 22.885 73.0332 24.0077 73.0348 25.4004ZM70.9548 25.4767C70.9537 24.5865 70.751 23.8526 70.3465 23.2743C69.9048 22.6732 69.3138 22.3726 68.5714 22.3733C68.0673 22.3738 67.6104 22.542 67.1997 22.8731C66.7905 23.2072 66.5238 23.643 66.3991 24.1828C66.3367 24.4344 66.3037 24.6394 66.3037 24.8016L66.3053 26.3277C66.3058 26.9921 66.5123 27.5535 66.9204 28.0126C67.3307 28.4688 67.863 28.6989 68.52 28.6983C69.2892 28.6975 69.8875 28.4007 70.314 27.8119C70.742 27.2215 70.9558 26.4434 70.9548 25.4767ZM84.8481 26.5168C84.8492 27.597 84.4709 28.4752 83.7185 29.1537C82.8902 29.8942 81.7333 30.2663 80.2495 30.2676C78.8789 30.269 77.7796 30.0069 76.9502 29.4805L77.4202 27.786C78.3156 28.3133 79.2991 28.5754 80.3695 28.5745C81.1391 28.5737 81.737 28.3997 82.164 28.0551C82.591 27.7097 82.8074 27.2481 82.8069 26.6723C82.8063 26.1566 82.6266 25.7248 82.275 25.3735C81.9214 25.023 81.3372 24.6967 80.5167 24.3971C78.2852 23.5709 77.1682 22.3603 77.1666 20.7664C77.1656 19.7255 77.5591 18.8729 78.3455 18.2058C79.1319 17.5396 80.1746 17.206 81.4729 17.2048C82.6319 17.2037 83.598 17.4039 84.3651 17.8045L83.8547 19.4617C83.1327 19.0735 82.3175 18.8798 81.4064 18.8806C80.6865 18.8813 80.1222 19.0582 79.7182 19.4094C79.3787 19.7234 79.2068 20.1059 79.2074 20.5596C79.2079 21.0601 79.4044 21.4755 79.7952 21.8012C80.1342 22.1011 80.753 22.4275 81.6474 22.7775C82.745 23.2168 83.5514 23.7289 84.068 24.3175C84.5882 24.906 84.8476 25.6408 84.8481 26.5168ZM91.6096 22.4465L89.3598 22.4488L89.364 26.89C89.365 28.0197 89.7622 28.5826 90.5565 28.5819C90.9211 28.5815 91.224 28.5507 91.4629 28.4867L91.521 30.0299C91.1192 30.1802 90.5895 30.2558 89.934 30.2565C89.1282 30.2572 88.4979 30.0128 88.0426 29.5233C87.5894 29.0337 87.361 28.2132 87.3599 27.0578L87.3552 22.4468L86.0149 22.4481L86.0139 20.9229L87.3541 20.9215L87.352 19.2467L89.3561 18.6423L89.3582 20.9197L91.608 20.9175L91.6096 22.4465ZM101.742 25.4101C101.743 26.8162 101.34 27.971 100.535 28.8746C99.693 29.8048 98.5712 30.2692 97.1728 30.2705C95.8231 30.2718 94.7496 29.8277 93.9485 28.939C93.1474 28.0483 92.746 26.9258 92.7444 25.5712C92.7434 24.1537 93.1557 22.9922 93.9789 22.0888C94.8046 21.1842 95.9164 20.7313 97.3148 20.73C98.6624 20.7288 99.7459 21.1737 100.566 22.0634C101.35 22.9262 101.741 24.0412 101.742 25.4101ZM99.6264 25.4589C99.6254 24.6208 99.443 23.9023 99.0773 23.3011C98.6493 22.5751 98.0363 22.2126 97.2425 22.2133C96.4251 22.214 95.7985 22.5778 95.372 23.3047C95.0068 23.9065 94.8261 24.6378 94.8266 25.5015C94.8276 26.3404 95.01 27.0608 95.3762 27.6603C95.8184 28.3863 96.4341 28.7488 97.2315 28.7481C98.0116 28.7473 98.6231 28.3759 99.0648 27.6386C99.4394 27.0224 99.6269 26.2987 99.6264 25.4589ZM108.376 22.6926C108.174 22.6556 107.958 22.6367 107.732 22.6369C107.015 22.6377 106.46 22.9071 106.07 23.4488C105.731 23.9258 105.561 24.5284 105.562 25.2557L105.567 30.0556L103.526 30.0574L103.52 23.7908C103.519 22.7373 103.498 21.7765 103.457 20.911L105.235 20.9092L105.312 22.6593H105.368C105.584 22.0576 105.922 21.572 106.387 21.2084C106.842 20.881 107.333 20.7174 107.862 20.7169C108.05 20.7168 108.221 20.73 108.372 20.7538L108.376 22.6926ZM117.505 25.0376C117.506 25.4017 117.482 25.7086 117.432 25.9595L111.309 25.9653C111.333 26.869 111.63 27.5609 112.199 28.0369C112.716 28.4616 113.383 28.6745 114.202 28.6736C115.109 28.6728 115.936 28.529 116.68 28.2395L117.001 29.649C116.132 30.0274 115.106 30.2162 113.922 30.2173C112.498 30.2187 111.379 29.8022 110.564 28.9698C109.752 28.1365 109.344 27.0159 109.342 25.6116C109.341 24.2332 109.719 23.0841 110.475 22.1674C111.266 21.1885 112.337 20.6983 113.685 20.6971C115.009 20.6959 116.011 21.1839 116.693 22.1613C117.232 22.9358 117.504 23.8965 117.505 25.0376ZM115.559 24.5123C115.573 23.9089 115.438 23.3894 115.161 22.9502C114.807 22.3843 114.263 22.1027 113.535 22.1034C112.867 22.104 112.324 22.38 111.911 22.9333C111.572 23.3731 111.37 23.9014 111.309 24.5145L115.559 24.5123Z" fill="black"/>
<path d="M47.4538 9.11521L46.6963 9.11594C46.6512 8.89902 46.5726 8.70855 46.4604 8.54441C46.3503 8.38027 46.2157 8.24252 46.0567 8.13117C45.8998 8.01772 45.7256 7.93276 45.534 7.87617C45.3424 7.81958 45.1428 7.79136 44.935 7.79157C44.5562 7.79194 44.2131 7.88754 43.9057 8.07844C43.6004 8.26933 43.3572 8.55041 43.1763 8.92161C42.9975 9.29286 42.9083 9.74814 42.9087 10.2875C42.9094 10.8268 42.9993 11.2819 43.179 11.6528C43.3606 12.0237 43.6043 12.3043 43.91 12.4947C44.2178 12.6848 44.561 12.7798 44.9399 12.7795C45.1477 12.7794 45.3473 12.7508 45.5387 12.6937C45.73 12.6368 45.9041 12.5526 46.0608 12.4408C46.2196 12.3271 46.354 12.1881 46.4637 12.0238C46.5756 11.8574 46.6538 11.6667 46.6985 11.4517L47.4562 11.451C47.3994 11.7694 47.2958 12.0544 47.1453 12.306C46.9949 12.5576 46.8076 12.7716 46.5838 12.9482C46.3599 13.1228 46.1085 13.2559 45.8295 13.3474C45.5526 13.4389 45.2563 13.4849 44.9406 13.4851C44.4069 13.4856 43.9322 13.3564 43.5165 13.0972C43.1007 12.838 42.7734 12.4693 42.5347 11.9911C42.2959 11.5128 42.1762 10.9451 42.1755 10.2882C42.1749 9.6312 42.2935 9.06337 42.5313 8.58462C42.7692 8.10592 43.0957 7.73655 43.5111 7.47665C43.9263 7.2167 44.4008 7.08646 44.9344 7.08594C45.2501 7.08568 45.5465 7.131 45.8236 7.22196C46.1027 7.31298 46.3544 7.44655 46.5787 7.62274C46.8029 7.79689 46.9905 8.00959 47.1414 8.26088C47.2924 8.51014 47.3966 8.79492 47.4538 9.11521Z" fill="black"/>
<path d="M48.5845 13.3964L48.58 8.72478L49.3011 8.72405L49.3031 10.7557L49.7796 10.7553L51.4642 8.72202L52.3929 8.72113L50.5009 10.9736L52.4219 13.3927L51.4932 13.3936L49.9514 11.4242L49.3036 11.4248L49.3055 13.3957L48.5845 13.3964Z" fill="black"/>
<path d="M54.5867 13.5002C54.2891 13.5005 54.0193 13.445 53.7767 13.3336C53.5346 13.2203 53.3418 13.0573 53.1988 12.8446C53.0563 12.6298 52.9845 12.3703 52.9845 12.0661C52.984 11.7985 53.0369 11.5815 53.1427 11.4151C53.2486 11.2467 53.39 11.1148 53.5671 11.0194C53.7442 10.9239 53.9396 10.8527 54.1534 10.8059C54.3693 10.757 54.5862 10.7183 54.8041 10.6897C55.0892 10.6529 55.3202 10.6253 55.4973 10.6069C55.6765 10.5865 55.807 10.5529 55.8887 10.5062C55.972 10.4594 56.0134 10.3783 56.0134 10.2627V10.2384C56.0134 9.93829 55.9306 9.7052 55.7656 9.53908C55.6021 9.37302 55.3548 9.29009 55.0226 9.2904C54.6784 9.29076 54.4086 9.36603 54.2131 9.51624C54.0177 9.6665 53.8804 9.82678 53.8013 9.99718L53.1165 9.75454C53.2386 9.47055 53.401 9.2494 53.6048 9.09106C53.8102 8.93067 54.0345 8.8189 54.2765 8.75584C54.5212 8.6907 54.7612 8.65805 54.9975 8.65784C55.1484 8.65768 55.3213 8.67578 55.5167 8.71208C55.7148 8.74635 55.9049 8.81817 56.0883 8.92749C56.2743 9.03676 56.4278 9.20189 56.5504 9.42277C56.673 9.64366 56.7343 9.93965 56.7343 10.3107L56.7375 13.3886L56.0166 13.3893L56.016 12.7568H55.9793C55.9306 12.8582 55.8489 12.9666 55.7352 13.0823C55.621 13.1981 55.4696 13.2966 55.2799 13.3778C55.0907 13.4592 54.8597 13.4999 54.5867 13.5002ZM54.6962 12.8553C54.9812 12.855 55.2217 12.799 55.4172 12.6873C55.6147 12.5757 55.763 12.4315 55.8625 12.255C55.9642 12.0785 56.015 11.8929 56.015 11.6983L56.0145 11.0413C55.9835 11.0779 55.9165 11.1114 55.8127 11.1419C55.7111 11.1703 55.5927 11.1958 55.4586 11.2183C55.326 11.2387 55.1966 11.257 55.0703 11.2734C54.9461 11.2877 54.8455 11.3 54.768 11.3102C54.5804 11.3347 54.4054 11.3744 54.2425 11.4293C54.0816 11.4821 53.9512 11.5624 53.8516 11.6699C53.7542 11.7755 53.7054 11.9195 53.7054 12.1019C53.706 12.3513 53.7987 12.5398 53.9842 12.6674C54.1718 12.793 54.4091 12.8555 54.6962 12.8553Z" fill="black"/>
<path d="M61.6662 8.71227L61.671 13.3839L60.95 13.3846L60.9453 8.71295L61.6662 8.71227ZM61.3875 10.9389L61.388 11.608C61.2251 11.669 61.0637 11.7228 60.9023 11.7696C60.7415 11.8144 60.5728 11.85 60.3957 11.8765C60.2186 11.901 60.0237 11.9134 59.812 11.9136C59.2802 11.9141 58.8537 11.7716 58.5315 11.486C58.2114 11.2004 58.051 10.7717 58.0505 10.1999L58.049 8.70356L58.7699 8.70288L58.7715 10.1992C58.772 10.4385 58.8176 10.6351 58.9098 10.7892C59.0015 10.9431 59.1256 11.0576 59.2828 11.1325C59.4395 11.2074 59.6161 11.2447 59.8115 11.2445C60.1169 11.2442 60.3931 11.2165 60.6393 11.1616C60.8877 11.1046 61.1371 11.0303 61.3875 10.9389Z" fill="black"/>
<path d="M64.375 13.4909C64.0774 13.4911 63.8076 13.4357 63.565 13.3243C63.323 13.211 63.1302 13.048 62.9871 12.8353C62.8446 12.6204 62.7728 12.361 62.7728 12.0569C62.7723 11.7892 62.8252 11.5722 62.9311 11.4058C63.0369 11.2374 63.1784 11.1055 63.3555 11.01C63.5325 10.9146 63.728 10.8434 63.9417 10.7966C64.1576 10.7477 64.3745 10.709 64.5925 10.6804C64.8775 10.6436 65.1086 10.616 65.2857 10.5976C65.4648 10.5772 65.5953 10.5436 65.6765 10.4968C65.7603 10.4501 65.8017 10.369 65.8017 10.2534V10.2291C65.8017 9.92901 65.719 9.69592 65.5534 9.5298C65.3904 9.36368 65.1431 9.2808 64.811 9.28111C64.4667 9.28143 64.1969 9.35669 64.0015 9.50695C63.806 9.65716 63.6688 9.8175 63.5897 9.98789L62.9049 9.74521C63.0269 9.46121 63.1894 9.24006 63.3932 9.08172C63.5986 8.92133 63.8228 8.80961 64.0649 8.7465C64.3096 8.68141 64.5495 8.64876 64.7858 8.6485C64.9367 8.64834 65.1096 8.66644 65.305 8.70274C65.5031 8.73706 65.6933 8.80883 65.8767 8.91815C66.0621 9.02747 66.2162 9.19255 66.3388 9.41349C66.4609 9.63437 66.5227 9.93031 66.5227 10.3014L66.5258 13.3793L65.8049 13.38L65.8044 12.7474H65.7677C65.719 12.8488 65.6372 12.9574 65.5235 13.0731C65.4093 13.1888 65.2579 13.2872 65.0682 13.3686C64.8791 13.4499 64.648 13.4907 64.375 13.4909ZM64.4845 12.846C64.7696 12.8457 65.0101 12.7897 65.2055 12.6779C65.403 12.5663 65.5513 12.4222 65.6508 12.2457C65.7525 12.0692 65.8033 11.8836 65.8033 11.6889L65.8023 11.032C65.7719 11.0685 65.7048 11.1021 65.6011 11.1326C65.4994 11.1611 65.381 11.1865 65.2464 11.2089C65.1143 11.2293 64.9849 11.2477 64.8586 11.2641C64.7345 11.2784 64.6339 11.2906 64.5563 11.3008C64.3688 11.3254 64.1938 11.3651 64.0308 11.42C63.87 11.4729 63.7395 11.5531 63.64 11.6606C63.5425 11.7661 63.4938 11.9101 63.4938 12.0926C63.4943 12.342 63.587 12.5305 63.7725 12.6581C63.9601 12.7837 64.1974 12.8462 64.4845 12.846Z" fill="black"/>
<path d="M67.1998 9.37608L67.1987 8.70696L71.012 8.70331L71.0125 9.37243L69.4726 9.37389L69.4763 13.3764L68.7554 13.3771L68.7517 9.37462L67.1998 9.37608Z" fill="black"/>
<path d="M72.6885 10.3927L74.033 10.3914C74.5826 10.3909 75.0033 10.5293 75.2951 10.8069C75.5865 11.0843 75.7326 11.436 75.7332 11.8618C75.7332 12.1416 75.6682 12.3962 75.5383 12.6254C75.4083 12.8526 75.2166 13.0343 74.9645 13.1703C74.712 13.3045 74.4024 13.3716 74.0356 13.3719L72.0682 13.3738L72.0635 8.70222L72.7849 8.70154L72.7886 12.704L74.0351 12.7028C74.3201 12.7026 74.5543 12.6273 74.7377 12.4771C74.9205 12.3269 75.0122 12.1342 75.0122 11.899C75.0117 11.6516 74.92 11.45 74.7366 11.294C74.5527 11.1381 74.3185 11.0602 74.0335 11.0605L72.6891 11.0618L72.6885 10.3927Z" fill="black"/>
<path d="M79.2515 13.3671L79.2468 8.69543L81.1655 8.6936C81.6706 8.69314 82.0719 8.80632 82.3695 9.0331C82.6671 9.25993 82.8164 9.55988 82.8164 9.93296C82.817 10.2168 82.7326 10.4369 82.5639 10.5932C82.3947 10.7474 82.1778 10.8521 81.9132 10.907C82.0866 10.9312 82.2548 10.9919 82.4177 11.0891C82.5828 11.1862 82.719 11.3199 82.8274 11.4902C82.9354 11.6583 82.9893 11.8651 82.9899 12.1104C82.9899 12.3497 82.9291 12.5637 82.807 12.7524C82.6849 12.941 82.5099 13.0902 82.282 13.2C82.0541 13.3096 81.7811 13.3647 81.4636 13.3649L79.2515 13.3671ZM79.9353 12.7094L81.4626 12.7081C81.7114 12.7078 81.9058 12.6488 82.0462 12.5311C82.1867 12.4133 82.2569 12.2531 82.2563 12.0503C82.2563 11.8091 82.1856 11.6195 82.0452 11.4818C81.9043 11.342 81.7099 11.2723 81.4615 11.2725L79.9337 11.2739L79.9353 12.7094ZM79.9332 10.6535L81.1676 10.6523C81.3609 10.6521 81.527 10.6256 81.6653 10.5727C81.8037 10.5179 81.9095 10.4407 81.9828 10.3413C82.0583 10.2399 82.0955 10.1202 82.0955 9.9823C82.0955 9.78562 82.0127 9.6316 81.8477 9.52024C81.6826 9.40685 81.4552 9.35031 81.166 9.35058L79.9321 9.35172L79.9332 10.6535Z" fill="black"/>
</svg>
