<svg width="14" height="15" viewBox="0 0 14 15" fill="none" xmlns="http://www.w3.org/2000/svg">
<rect y="0.319824" width="14" height="14" rx="2.82721" fill="#598DBD"/>
<g filter="url(#filter0_d_20_1085977)">
<mask id="path-2-outside-1_20_1085977" maskUnits="userSpaceOnUse" x="2.36002" y="2.64795" width="9" height="9" fill="black">
<rect fill="white" x="2.36002" y="2.64795" width="9" height="9"/>
<path fill-rule="evenodd" clip-rule="evenodd" d="M5.93276 4.52911C5.89591 4.26916 5.67397 4.0772 5.4129 4.08026L5.4104 4.08029L4.31028 4.08027C4.3099 4.08031 4.30711 4.08051 4.29864 4.08136C4.29809 4.08142 4.29748 4.08148 4.29684 4.08154C4.28885 4.08235 4.2739 4.08387 4.25679 4.08441C3.97408 4.11209 3.76599 4.36377 3.79237 4.64655C3.90935 5.75338 4.28482 6.81413 4.88553 7.74502L4.88658 7.74665C5.43299 8.61036 6.1629 9.34404 7.02622 9.89323L7.02826 9.89453C7.95427 10.4983 9.01016 10.8718 10.1085 10.9936C10.1139 10.9942 10.1193 10.995 10.1247 10.996C10.1255 10.9961 10.127 10.9962 10.1291 10.9963C10.1353 10.9966 10.1423 10.9966 10.1537 10.9966C10.4376 10.9966 10.6698 10.7622 10.6698 10.4736V9.36197C10.6759 9.0951 10.4846 8.87115 10.2254 8.83783L10.2241 8.83765C9.8555 8.78796 9.49593 8.69758 9.14562 8.56666L9.14292 8.56565C8.95572 8.49281 8.74045 8.5385 8.59852 8.68117L8.59782 8.68187L8.12907 9.14872C8.06051 9.21701 7.95509 9.231 7.87124 9.18296C6.91785 8.63661 6.12878 7.8481 5.58483 6.88901C5.53667 6.80408 5.55121 6.69723 5.62029 6.62843L6.08776 6.16285C6.22614 6.01987 6.27215 5.80194 6.20225 5.61234M5.93276 4.52911C5.98222 4.89928 6.07211 5.26048 6.20225 5.61234L5.93276 4.52911ZM5.40923 3.648C5.88702 3.64308 6.29208 3.99524 6.35867 4.46936L6.35888 4.47084C6.40405 4.80929 6.48615 5.13949 6.60533 5.4617C6.73299 5.80761 6.65044 6.20296 6.39404 6.46629L6.39173 6.46866L6.04182 6.81712C6.51484 7.5976 7.1665 8.24923 7.94407 8.72446L8.29444 8.37551C8.29454 8.3754 8.29465 8.37529 8.29475 8.37519C8.5567 8.11214 8.95116 8.02815 9.29672 8.16195C9.61668 8.28142 9.94456 8.36378 10.2806 8.40914C10.7598 8.47111 11.1096 8.88536 11.0998 9.36928V10.4736C11.0998 10.9976 10.6784 11.4289 10.1537 11.4289C10.1527 11.4289 10.1515 11.4289 10.1501 11.4289C10.1329 11.4289 10.0938 11.429 10.0542 11.4225C8.89351 11.2927 7.77634 10.8973 6.79523 10.2579C5.87892 9.67474 5.10424 8.89601 4.52422 7.97945C3.88693 6.99159 3.48857 5.86577 3.36461 4.69095L3.36438 4.68876C3.31415 4.16142 3.7046 3.69777 4.22676 3.6531M5.40923 3.648H4.3095C4.28766 3.648 4.26743 3.65006 4.25765 3.65105C4.257 3.65112 4.2564 3.65118 4.25585 3.65123C4.24726 3.6521 4.24451 3.65229 4.24419 3.65232"/>
</mask>
<path fill-rule="evenodd" clip-rule="evenodd" d="M5.93276 4.52911C5.89591 4.26916 5.67397 4.0772 5.4129 4.08026L5.4104 4.08029L4.31028 4.08027C4.3099 4.08031 4.30711 4.08051 4.29864 4.08136C4.29809 4.08142 4.29748 4.08148 4.29684 4.08154C4.28885 4.08235 4.2739 4.08387 4.25679 4.08441C3.97408 4.11209 3.76599 4.36377 3.79237 4.64655C3.90935 5.75338 4.28482 6.81413 4.88553 7.74502L4.88658 7.74665C5.43299 8.61036 6.1629 9.34404 7.02622 9.89323L7.02826 9.89453C7.95427 10.4983 9.01016 10.8718 10.1085 10.9936C10.1139 10.9942 10.1193 10.995 10.1247 10.996C10.1255 10.9961 10.127 10.9962 10.1291 10.9963C10.1353 10.9966 10.1423 10.9966 10.1537 10.9966C10.4376 10.9966 10.6698 10.7622 10.6698 10.4736V9.36197C10.6759 9.0951 10.4846 8.87115 10.2254 8.83783L10.2241 8.83765C9.8555 8.78796 9.49593 8.69758 9.14562 8.56666L9.14292 8.56565C8.95572 8.49281 8.74045 8.5385 8.59852 8.68117L8.59782 8.68187L8.12907 9.14872C8.06051 9.21701 7.95509 9.231 7.87124 9.18296C6.91785 8.63661 6.12878 7.8481 5.58483 6.88901C5.53667 6.80408 5.55121 6.69723 5.62029 6.62843L6.08776 6.16285C6.22614 6.01987 6.27215 5.80194 6.20225 5.61234M5.93276 4.52911C5.98222 4.89928 6.07211 5.26048 6.20225 5.61234L5.93276 4.52911ZM5.40923 3.648C5.88702 3.64308 6.29208 3.99524 6.35867 4.46936L6.35888 4.47084C6.40405 4.80929 6.48615 5.13949 6.60533 5.4617C6.73299 5.80761 6.65044 6.20296 6.39404 6.46629L6.39173 6.46866L6.04182 6.81712C6.51484 7.5976 7.1665 8.24923 7.94407 8.72446L8.29444 8.37551C8.29454 8.3754 8.29465 8.37529 8.29475 8.37519C8.5567 8.11214 8.95116 8.02815 9.29672 8.16195C9.61668 8.28142 9.94456 8.36378 10.2806 8.40914C10.7598 8.47111 11.1096 8.88536 11.0998 9.36928V10.4736C11.0998 10.9976 10.6784 11.4289 10.1537 11.4289C10.1527 11.4289 10.1515 11.4289 10.1501 11.4289C10.1329 11.4289 10.0938 11.429 10.0542 11.4225C8.89351 11.2927 7.77634 10.8973 6.79523 10.2579C5.87892 9.67474 5.10424 8.89601 4.52422 7.97945C3.88693 6.99159 3.48857 5.86577 3.36461 4.69095L3.36438 4.68876C3.31415 4.16142 3.7046 3.69777 4.22676 3.6531M5.40923 3.648H4.3095C4.28766 3.648 4.26743 3.65006 4.25765 3.65105C4.257 3.65112 4.2564 3.65118 4.25585 3.65123C4.24726 3.6521 4.24451 3.65229 4.24419 3.65232" fill="white"/>
<path d="M6.0185 4.50778C6.00672 4.46043 5.95878 4.43159 5.91143 4.44337C5.86408 4.45515 5.83524 4.50309 5.84702 4.55044L6.0185 4.50778ZM6.11651 5.63367C6.12829 5.68102 6.17623 5.70986 6.22358 5.69808C6.27093 5.6863 6.29977 5.63837 6.28799 5.59101L6.11651 5.63367ZM5.40923 3.648L5.40961 3.73635C5.45839 3.73614 5.49777 3.69643 5.49758 3.64765C5.49738 3.59886 5.45768 3.55947 5.4089 3.55965L5.40923 3.648ZM4.22638 3.56475C4.17758 3.56496 4.1382 3.60469 4.13841 3.65348C4.13862 3.70228 4.17834 3.74166 4.22714 3.74145L4.22638 3.56475ZM4.24387 3.56397C4.19507 3.56416 4.15566 3.60386 4.15584 3.65265C4.15603 3.70145 4.19573 3.74086 4.24452 3.74067L4.24387 3.56397ZM6.28799 5.59101L6.0185 4.50778L5.84702 4.55044L6.11651 5.63367L6.28799 5.59101ZM4.22714 3.74145L5.40961 3.73635L5.40884 3.55965L4.22638 3.56475L4.22714 3.74145ZM4.24452 3.74067L5.40955 3.73635L5.4089 3.55965L4.24387 3.56397L4.24452 3.74067ZM5.4129 4.08026L5.41083 3.90357L5.41083 3.90357L5.4129 4.08026ZM5.93276 4.52911L6.10791 4.50571L6.10771 4.50431L5.93276 4.52911ZM5.4104 4.08029L5.4104 4.257L5.41247 4.25697L5.4104 4.08029ZM4.31028 4.08027L4.31028 3.90357C4.30425 3.90357 4.29822 3.90388 4.29221 3.9045L4.31028 4.08027ZM4.29864 4.08136L4.31631 4.25717H4.31631L4.29864 4.08136ZM4.29684 4.08154L4.27897 3.90575L4.27896 3.90575L4.29684 4.08154ZM4.25679 4.08441L4.2513 3.9074L4.23957 3.90855L4.25679 4.08441ZM3.79237 4.64655L3.61642 4.66296L3.61665 4.66512L3.79237 4.64655ZM4.88553 7.74502L4.73705 7.84083L4.73706 7.84083L4.88553 7.74502ZM4.88658 7.74665L5.03591 7.65218L5.03505 7.65084L4.88658 7.74665ZM7.02622 9.89323L6.93138 10.0423L6.93138 10.0423L7.02622 9.89323ZM7.02826 9.89453L7.12477 9.7465L7.12309 9.74543L7.02826 9.89453ZM10.1085 10.9936L10.089 11.1692L10.089 11.1692L10.1085 10.9936ZM10.1247 10.996L10.0919 11.1696C10.0976 11.1707 10.1034 11.1715 10.1092 11.172L10.1247 10.996ZM10.1291 10.9963L10.1372 10.8198L10.1371 10.8198L10.1291 10.9963ZM10.6698 9.36197L10.4931 9.35793V9.36197H10.6698ZM10.2254 8.83783L10.2023 9.01301L10.2028 9.01308L10.2254 8.83783ZM10.2241 8.83765L10.2004 9.01277L10.201 9.01284L10.2241 8.83765ZM9.14562 8.56666L9.20748 8.40114L9.20747 8.40114L9.14562 8.56666ZM9.14292 8.56565L9.07884 8.73034L9.08107 8.73117L9.14292 8.56565ZM8.59852 8.68117L8.72346 8.80612L8.72379 8.80579L8.59852 8.68117ZM8.59782 8.68187L8.72251 8.80707L8.72276 8.80682L8.59782 8.68187ZM8.12907 9.14872L8.00438 9.02352L8.12907 9.14872ZM7.87124 9.18296L7.9591 9.02964L7.87124 9.18296ZM5.58483 6.88901L5.73854 6.80184V6.80184L5.58483 6.88901ZM5.62029 6.62843L5.74498 6.75363L5.62029 6.62843ZM6.08776 6.16285L6.21247 6.28807L6.21473 6.28574L6.08776 6.16285ZM6.20225 5.61234L6.36804 5.55122L6.36798 5.55105L6.20225 5.61234ZM6.35867 4.46936L6.18369 4.49394L6.18369 4.49395L6.35867 4.46936ZM5.40923 3.648V3.82471L5.41105 3.82469L5.40923 3.648ZM6.35888 4.47084L6.53403 4.44746L6.53386 4.44624L6.35888 4.47084ZM6.60533 5.4617L6.7711 5.40052L6.77106 5.4004L6.60533 5.4617ZM6.39404 6.46629L6.26744 6.34302L6.26744 6.34302L6.39404 6.46629ZM6.39173 6.46866L6.51643 6.59388L6.51833 6.59193L6.39173 6.46866ZM6.04182 6.81712L5.91714 6.69192C5.85938 6.74944 5.84846 6.839 5.89071 6.90871L6.04182 6.81712ZM7.94407 8.72446L7.85192 8.87523C7.92145 8.91772 8.01102 8.90716 8.06876 8.84966L7.94407 8.72446ZM8.29444 8.37551L8.41913 8.50071L8.41971 8.50013L8.29444 8.37551ZM8.29475 8.37519L8.41978 8.50005L8.41996 8.49987L8.29475 8.37519ZM9.29672 8.16195L9.23292 8.32674L9.23491 8.32749L9.29672 8.16195ZM10.2806 8.40914L10.257 8.58425L10.258 8.58438L10.2806 8.40914ZM11.0998 9.36928L10.9231 9.36571V9.36928H11.0998ZM10.1501 11.4289L10.1506 11.6056H10.1507L10.1501 11.4289ZM10.0542 11.4225L10.0833 11.2479L10.0739 11.2468L10.0542 11.4225ZM6.79523 10.2579L6.89172 10.1098L6.8901 10.1088L6.79523 10.2579ZM4.52422 7.97945L4.67354 7.88496L4.6727 7.88366L4.52422 7.97945ZM3.36461 4.69095L3.18888 4.7095L3.18888 4.7095L3.36461 4.69095ZM3.36438 4.68876L3.18846 4.70552L3.18865 4.7073L3.36438 4.68876ZM4.24182 3.82916C4.33905 3.82084 4.41113 3.73527 4.40281 3.63804C4.3945 3.54081 4.30893 3.46873 4.2117 3.47704L4.24182 3.82916ZM4.25765 3.65105L4.27552 3.82685L4.27552 3.82685L4.25765 3.65105ZM4.25585 3.65123L4.27352 3.82705L4.27352 3.82705L4.25585 3.65123ZM4.2248 3.47669C4.1278 3.4874 4.05785 3.57472 4.06856 3.67172C4.07927 3.76872 4.16659 3.83867 4.26359 3.82796L4.2248 3.47669ZM5.41496 4.25695C5.58621 4.25494 5.73328 4.38083 5.75781 4.55391L6.10771 4.50431C6.05855 4.15748 5.76173 3.89947 5.41083 3.90357L5.41496 4.25695ZM5.41247 4.25697L5.41497 4.25694L5.41083 3.90357L5.40833 3.9036L5.41247 4.25697ZM4.31028 4.25697L5.4104 4.25699L5.4104 3.90358L4.31028 3.90357L4.31028 4.25697ZM4.31631 4.25717C4.31999 4.25681 4.32214 4.25661 4.32319 4.25651C4.3237 4.25647 4.32402 4.25644 4.32421 4.25642C4.32427 4.25642 4.32432 4.25641 4.32441 4.25641C4.32446 4.2564 4.32462 4.25639 4.32476 4.25638C4.32488 4.25637 4.32521 4.25634 4.32561 4.25631C4.32583 4.25629 4.32695 4.25619 4.32834 4.25605L4.29221 3.9045C4.29356 3.90436 4.29461 3.90427 4.29474 3.90425C4.29492 3.90424 4.29505 3.90423 4.29513 3.90422C4.2952 3.90422 4.29526 3.90421 4.29527 3.90421C4.29529 3.90421 4.29529 3.90421 4.29517 3.90422C4.29508 3.90423 4.29494 3.90424 4.29478 3.90425C4.29407 3.90431 4.29309 3.90439 4.2918 3.90451C4.28924 3.90474 4.28576 3.90506 4.28097 3.90555L4.31631 4.25717ZM4.31471 4.25734C4.31538 4.25727 4.31588 4.25722 4.31631 4.25717L4.28097 3.90555C4.2803 3.90561 4.27959 3.90568 4.27897 3.90575L4.31471 4.25734ZM4.26227 4.26102C4.28606 4.26028 4.30633 4.25819 4.31471 4.25734L4.27896 3.90575C4.27137 3.90652 4.26173 3.90747 4.25131 3.90779L4.26227 4.26102ZM3.96831 4.63013C3.95098 4.44438 4.08793 4.27849 4.27401 4.26026L4.23957 3.90855C3.86022 3.94569 3.581 4.28316 3.61644 4.66296L3.96831 4.63013ZM5.034 7.64921C4.44827 6.74152 4.08215 5.70722 3.9681 4.62798L3.61665 4.66512C3.73654 5.79953 4.12138 6.88673 4.73705 7.84083L5.034 7.64921ZM5.03505 7.65084L5.03399 7.64921L4.73706 7.84083L4.73811 7.84247L5.03505 7.65084ZM7.12106 9.74414C6.27983 9.209 5.56848 8.49402 5.03591 7.65218L4.73725 7.84113C5.2975 8.7267 6.04596 9.47908 6.93138 10.0423L7.12106 9.74414ZM7.12309 9.74543L7.12106 9.74414L6.93138 10.0423L6.93342 10.0436L7.12309 9.74543ZM10.128 10.818C9.05662 10.6992 8.0272 10.3349 7.12476 9.74651L6.93175 10.0425C7.88134 10.6617 8.9637 11.0445 10.089 11.1692L10.128 10.818ZM10.1576 10.8224C10.1478 10.8205 10.1379 10.8191 10.128 10.818L10.089 11.1692C10.09 11.1693 10.0909 11.1695 10.0919 11.1696L10.1576 10.8224ZM10.1371 10.8198C10.1372 10.8198 10.1374 10.8198 10.1379 10.8198C10.1384 10.8198 10.1392 10.8199 10.1402 10.82L10.1092 11.172C10.1129 11.1724 10.1168 11.1726 10.1211 11.1728L10.1371 10.8198ZM10.1537 10.8199C10.1415 10.8199 10.1386 10.8198 10.1372 10.8198L10.121 11.1728C10.1319 11.1733 10.1431 11.1733 10.1537 11.1733V10.8199ZM10.4931 10.4736C10.4931 10.6666 10.338 10.8199 10.1537 10.8199V11.1733C10.5372 11.1733 10.8465 10.8577 10.8465 10.4736H10.4931ZM10.2028 9.01308C10.3706 9.03465 10.4972 9.17965 10.4931 9.35793L10.8464 9.36601C10.8546 9.01054 10.5986 8.70765 10.2479 8.66257L10.2028 9.01308ZM10.201 9.01284L10.2023 9.01301L10.2484 8.66264L10.2471 8.66247L10.201 9.01284ZM9.08376 8.73218C9.44634 8.86769 9.81874 8.9613 10.2004 9.01277L10.2477 8.66254C9.89227 8.61461 9.54552 8.52748 9.20748 8.40114L9.08376 8.73218ZM9.08107 8.73117L9.08376 8.73218L9.20747 8.40114L9.20478 8.40013L9.08107 8.73117ZM8.72379 8.80579C8.81631 8.71279 8.95728 8.68302 9.07885 8.73033L9.207 8.40098C8.95416 8.3026 8.6646 8.36421 8.47325 8.55655L8.72379 8.80579ZM8.72276 8.80682L8.72346 8.80612L8.47358 8.55622L8.47288 8.55692L8.72276 8.80682ZM8.25377 9.27392L8.72251 8.80707L8.47312 8.55667L8.00438 9.02352L8.25377 9.27392ZM7.78339 9.33627C7.93645 9.42398 8.12889 9.3983 8.25377 9.27392L8.00438 9.02352C7.99214 9.03572 7.97373 9.03803 7.9591 9.02964L7.78339 9.33627ZM5.43113 6.97618C5.99084 7.96305 6.80275 8.77431 7.78339 9.33627L7.9591 9.02964C7.03296 8.49892 6.26673 7.73314 5.73854 6.80184L5.43113 6.97618ZM5.4956 6.50323C5.37001 6.62832 5.34377 6.82214 5.43113 6.97618L5.73854 6.80184C5.72957 6.78602 5.73241 6.76615 5.74498 6.75363L5.4956 6.50323ZM5.96306 6.03765L5.4956 6.50323L5.74498 6.75363L6.21245 6.28805L5.96306 6.03765ZM6.03646 5.67347C6.08307 5.79988 6.05157 5.94616 5.96078 6.03996L6.21473 6.28574C6.40071 6.09357 6.46124 5.80399 6.36804 5.55122L6.03646 5.67347ZM5.75762 4.55251C5.80882 4.93569 5.90187 5.3096 6.03652 5.67364L6.36798 5.55105C6.24234 5.21136 6.15563 4.86287 6.10791 4.50571L5.75762 4.55251ZM6.53366 4.44478C6.45487 3.88381 5.97506 3.46546 5.40741 3.47131L5.41105 3.82469C5.79898 3.82069 6.1293 4.10666 6.18369 4.49394L6.53366 4.44478ZM6.53386 4.44624L6.53366 4.44477L6.18369 4.49395L6.1839 4.49543L6.53386 4.44624ZM6.77106 5.4004C6.65639 5.09038 6.57746 4.7729 6.53403 4.44746L6.18373 4.49421C6.23064 4.84569 6.31592 5.1886 6.4396 5.523L6.77106 5.4004ZM6.52064 6.58956C6.82501 6.27696 6.92211 5.80971 6.7711 5.40052L6.43956 5.52288C6.54387 5.80552 6.47587 6.12896 6.26744 6.34302L6.52064 6.58956ZM6.51833 6.59193L6.52064 6.58956L6.26744 6.34302L6.26513 6.34539L6.51833 6.59193ZM6.16651 6.94233L6.51642 6.59387L6.26705 6.34346L5.91714 6.69192L6.16651 6.94233ZM8.03622 8.57369C7.28257 8.11308 6.6512 7.48168 6.19294 6.72554L5.89071 6.90871C6.37848 7.71353 7.05043 8.38538 7.85192 8.87523L8.03622 8.57369ZM8.16974 8.25031L7.81938 8.59926L8.06876 8.84966L8.41913 8.50071L8.16974 8.25031ZM8.16973 8.25032L8.16917 8.25088L8.41971 8.50013L8.41978 8.50005L8.16973 8.25032ZM9.36053 7.99717C8.94941 7.83799 8.48082 7.93791 8.16954 8.25051L8.41996 8.49987C8.63257 8.28637 8.95292 8.21832 9.23292 8.32673L9.36053 7.99717ZM10.3043 8.23402C9.98132 8.19043 9.66624 8.11131 9.35854 7.99642L9.23491 8.32749C9.56712 8.45154 9.9078 8.53712 10.257 8.58425L10.3043 8.23402ZM11.2765 9.37285C11.288 8.80073 10.8739 8.30768 10.3033 8.2339L10.258 8.58438C10.6458 8.63453 10.9311 8.97 10.9232 9.36571L11.2765 9.37285ZM11.2765 10.4736V9.36928H10.9231V10.4736H11.2765ZM10.1537 11.6056C10.7782 11.6056 11.2765 11.0929 11.2765 10.4736H10.9231C10.9231 10.9023 10.5785 11.2522 10.1537 11.2522V11.6056ZM10.1507 11.6056C10.152 11.6056 10.153 11.6056 10.1537 11.6056V11.2522C10.1524 11.2522 10.1509 11.2522 10.1496 11.2522L10.1507 11.6056ZM10.0252 11.5968C10.0809 11.606 10.1332 11.6056 10.1506 11.6056L10.1496 11.2522C10.1325 11.2522 10.1067 11.2521 10.0832 11.2481L10.0252 11.5968ZM6.69875 10.4059C7.70338 11.0607 8.84696 11.4653 10.0346 11.5981L10.0739 11.2468C8.94007 11.1201 7.8493 10.734 6.89172 10.1098L6.69875 10.4059ZM4.3749 8.07394C4.96875 9.01235 5.76198 9.80977 6.70037 10.4069L6.8901 10.1088C5.99585 9.53971 5.23972 8.77966 4.67353 7.88496L4.3749 8.07394ZM3.18888 4.7095C3.31575 5.9119 3.72347 7.06417 4.37573 8.07524L4.6727 7.88366C4.05038 6.91901 3.66138 5.81964 3.54033 4.67241L3.18888 4.7095ZM3.18865 4.7073L3.18888 4.7095L3.54033 4.67241L3.5401 4.67022L3.18865 4.7073ZM4.2117 3.47704C3.59192 3.53006 3.1289 4.08009 3.18847 4.70551L3.54028 4.672C3.49939 4.24275 3.81728 3.86548 4.24182 3.82916L4.2117 3.47704ZM5.40923 3.4713H4.3095V3.8247H5.40923V3.4713ZM4.3095 3.4713C4.27789 3.4713 4.24985 3.47423 4.23977 3.47526L4.27552 3.82685C4.28502 3.82588 4.29743 3.8247 4.3095 3.8247V3.4713ZM4.23977 3.47526C4.2391 3.47533 4.23861 3.47538 4.23817 3.47542L4.27352 3.82705C4.27419 3.82698 4.2749 3.82691 4.27552 3.82685L4.23977 3.47526ZM4.23818 3.47542C4.23445 3.47579 4.23229 3.47599 4.23125 3.47609C4.23075 3.47613 4.23044 3.47616 4.23025 3.47617C4.23019 3.47618 4.23013 3.47618 4.23003 3.47619C4.22997 3.4762 4.2298 3.47621 4.22962 3.47622C4.22948 3.47624 4.22907 3.47627 4.22857 3.47632C4.22838 3.47633 4.22678 3.47647 4.2248 3.47669L4.26359 3.82796C4.26164 3.82817 4.26011 3.82831 4.26 3.82832C4.25958 3.82835 4.25926 3.82838 4.25924 3.82838C4.25919 3.82839 4.25917 3.82839 4.25927 3.82838C4.25934 3.82837 4.25948 3.82836 4.25963 3.82835C4.26031 3.82829 4.26129 3.82821 4.26259 3.82809C4.26515 3.82787 4.26866 3.82754 4.27352 3.82705L4.23818 3.47542ZM10.4931 9.36197V10.4736H10.8465V9.36197H10.4931Z" fill="white" mask="url(#path-2-outside-1_20_1085977)"/>
</g>
<defs>
<filter id="filter0_d_20_1085977" x="2.47651" y="3.47119" width="9.50702" height="10.2549" filterUnits="userSpaceOnUse" color-interpolation-filters="sRGB">
<feFlood flood-opacity="0" result="BackgroundImageFix"/>
<feColorMatrix in="SourceAlpha" type="matrix" values="0 0 0 0 0 0 0 0 0 0 0 0 0 0 0 0 0 0 127 0" result="hardAlpha"/>
<feOffset dy="1.41361"/>
<feGaussianBlur stdDeviation="0.353401"/>
<feComposite in2="hardAlpha" operator="out"/>
<feColorMatrix type="matrix" values="0 0 0 0 0 0 0 0 0 0 0 0 0 0 0 0 0 0 0.16 0"/>
<feBlend mode="normal" in2="BackgroundImageFix" result="effect1_dropShadow_20_1085977"/>
<feBlend mode="normal" in="SourceGraphic" in2="effect1_dropShadow_20_1085977" result="shape"/>
</filter>
</defs>
</svg>
