<svg width="151" height="45" viewBox="0 0 151 45" fill="none" xmlns="http://www.w3.org/2000/svg">
<g clip-path="url(#clip0_12_21342)">
<mask id="mask0_12_21342" style="mask-type:luminance" maskUnits="userSpaceOnUse" x="0" y="0" width="151" height="45">
<path d="M150.316 0H0.0203857V44.3729H150.316V0Z" fill="white"/>
</mask>
<g mask="url(#mask0_12_21342)">
<path d="M148.664 38.8905C148.667 41.2143 146.771 43.0984 144.423 43.1007L5.48876 43.2341C3.14234 43.2363 1.23605 41.3559 1.23382 39.032L1.2016 5.48896C1.19937 3.16621 3.10214 1.27544 5.44845 1.27319L144.382 1.13977C146.73 1.13751 148.628 3.02463 148.631 5.34738L148.664 38.8905Z" fill="white"/>
<path d="M144.557 44.2341L5.35165 44.3678C2.45922 44.3705 0.102652 42.0313 0.0998865 39.1512L0.0674463 5.37083C0.0646784 2.48851 2.41675 0.141466 5.30918 0.138688L144.514 0.00500734C147.403 0.00223289 149.763 2.34475 149.766 5.22708L149.798 39.0074C149.803 41.8876 147.447 44.2312 144.557 44.2341Z" fill="#A6A6A6"/>
<path d="M148.664 38.8905C148.667 41.2143 146.771 43.0984 144.423 43.1007L5.48876 43.2341C3.14234 43.2363 1.23605 41.3559 1.23382 39.032L1.2016 5.48896C1.19937 3.16621 3.10214 1.27544 5.44845 1.27319L144.382 1.13977C146.73 1.13751 148.628 3.02463 148.631 5.34738L148.664 38.8905Z" fill="black"/>
<path d="M33.7707 21.9937C33.7357 18.4119 36.6496 16.6664 36.7828 16.5851C35.1293 14.1383 32.5697 13.8063 31.6702 13.7805C29.5205 13.5525 27.4369 15.0926 26.3419 15.0936C25.2251 15.0948 23.5376 13.8105 21.7204 13.85C19.3818 13.8889 17.1955 15.2681 15.9975 17.4074C13.5255 21.7697 15.3784 28.1751 17.7543 31.6969C18.9426 33.4228 20.3314 35.3475 22.1464 35.278C23.9221 35.203 24.5844 34.1253 26.7274 34.1233C28.8506 34.1213 29.4747 35.271 31.3258 35.2259C33.2317 35.194 34.4299 33.489 35.5736 31.7464C36.9431 29.768 37.492 27.8182 37.5137 27.7181C37.4699 27.7025 33.8121 26.2858 33.7707 21.9937ZM30.2637 11.4635C31.2176 10.2479 31.8696 8.59461 31.6866 6.91772C30.3041 6.9813 28.5763 7.89313 27.5817 9.08216C26.702 10.1299 25.9168 11.8466 26.1216 13.4602C27.6746 13.5765 29.2682 12.6603 30.2637 11.4635Z" fill="white"/>
<path d="M59.5149 34.9873L57.0004 34.9897L55.6189 30.6614L50.8312 30.6659L49.5231 34.9969L47.0752 34.9993L51.8055 20.2542L54.7353 20.2514L59.5149 34.9873ZM55.202 28.8452L53.9527 24.9972C53.8206 24.6042 53.5717 23.6785 53.2069 22.2212H53.1628C53.0172 22.8483 52.7844 23.7746 52.4656 24.9987L51.2448 28.8489L55.202 28.8452ZM71.6869 29.5304C71.6887 31.3381 71.1996 32.7675 70.2185 33.8174C69.3403 34.7519 68.2477 35.2194 66.9447 35.2206C65.5375 35.222 64.5248 34.7212 63.9097 33.7161L63.9146 39.293L61.5541 39.2953L61.5432 27.85C61.542 26.7145 61.5111 25.5505 61.4523 24.3565L63.5285 24.3545L63.6619 26.0391H63.7061C64.4921 24.7689 65.686 24.1331 67.2895 24.1315C68.5428 24.1302 69.5894 24.6243 70.4276 25.615C71.2645 26.6078 71.6857 27.9122 71.6869 29.5304ZM69.2822 29.6192C69.281 28.5846 69.0476 27.732 68.5798 27.0602C68.0689 26.3616 67.3829 26.0124 66.5241 26.0132C65.9417 26.0138 65.4127 26.2092 64.94 26.5939C64.4667 26.9821 64.157 27.4886 64.0127 28.1156C63.94 28.4081 63.9037 28.6463 63.9037 28.8346L63.9055 30.608C63.9061 31.3799 64.1437 32.0322 64.6182 32.5657C65.0927 33.0969 65.7084 33.3631 66.466 33.3624C67.355 33.3615 68.0465 33.0166 68.541 32.3325C69.0361 31.6464 69.2834 30.7424 69.2822 29.6192ZM83.9075 29.5187C83.9093 31.3264 83.4202 32.7557 82.4391 33.8057C81.5597 34.7402 80.4683 35.2077 79.1641 35.2089C77.7569 35.2103 76.7442 34.7095 76.1285 33.7044L76.1339 39.2813L73.7735 39.2836L73.7625 27.8382C73.7613 26.7027 73.7304 25.5387 73.6716 24.3448L75.7479 24.3428L75.8812 26.0274H75.9255C76.7103 24.7572 77.9042 24.1213 79.5089 24.1198C80.761 24.1185 81.8076 24.6126 82.6481 25.6033C83.4839 26.5961 83.9057 27.9005 83.9075 29.5187ZM81.5015 29.6074C81.5003 28.573 81.2658 27.7203 80.7979 27.0484C80.2871 26.3499 79.6035 26.0006 78.7447 26.0015C78.1617 26.002 77.6333 26.1974 77.1581 26.5822C76.6848 26.9704 76.3763 27.4768 76.2321 28.1039C76.16 28.3963 76.1218 28.6345 76.1218 28.8229L76.1236 30.5962C76.1242 31.3682 76.363 32.0204 76.8351 32.5539C77.3096 33.084 77.9254 33.3513 78.6853 33.3506C79.575 33.3498 80.2671 33.0048 80.7604 32.3207C81.2555 31.6347 81.5028 30.7306 81.5015 29.6074ZM97.5716 30.816C97.5728 32.071 97.1353 33.0914 96.265 33.8798C95.3069 34.7402 93.9688 35.1725 92.2525 35.1741C90.6671 35.1757 89.3957 34.8712 88.4363 34.2595L88.9799 32.2907C90.0156 32.9033 91.1532 33.2079 92.3913 33.2068C93.2815 33.2059 93.973 33.0037 94.4669 32.6033C94.9608 32.202 95.2111 31.6656 95.2105 30.9966C95.2099 30.3974 95.0021 29.8957 94.5954 29.4875C94.1863 29.0802 93.5106 28.7011 92.5616 28.3529C89.9805 27.3929 88.6884 25.9863 88.6866 24.1344C88.6854 22.9249 89.1405 21.9342 90.0502 21.1591C90.9598 20.385 92.1658 19.9974 93.6676 19.996C95.0081 19.9947 96.1256 20.2273 97.0129 20.6928L96.4226 22.6184C95.5875 22.1673 94.6445 21.9422 93.5906 21.9432C92.7579 21.9439 92.1052 22.1495 91.638 22.5576C91.2453 22.9224 91.0465 23.3669 91.0471 23.8941C91.0477 24.4756 91.275 24.9583 91.7271 25.3367C92.1192 25.6851 92.8349 26.0645 93.8694 26.4711C95.139 26.9816 96.0717 27.5766 96.6692 28.2605C97.271 28.9442 97.571 29.7981 97.5716 30.816ZM105.392 26.0865L102.79 26.0891L102.795 31.2495C102.796 32.5621 103.256 33.2162 104.174 33.2154C104.596 33.2149 104.946 33.1792 105.223 33.1048L105.29 34.8979C104.825 35.0725 104.212 35.1603 103.454 35.1612C102.522 35.162 101.793 34.8781 101.267 34.3092C100.742 33.7404 100.478 32.787 100.477 31.4445L100.471 26.0868L98.9212 26.0884L98.92 24.3162L100.47 24.3146L100.468 22.3685L102.786 21.6663L102.788 24.3125L105.391 24.3099L105.392 26.0865ZM117.112 29.53C117.114 31.1638 116.648 32.5056 115.716 33.5555C114.742 34.6363 113.445 35.1759 111.827 35.1775C110.266 35.179 109.024 34.6629 108.098 33.6303C107.171 32.5955 106.707 31.2912 106.705 29.7172C106.704 28.0701 107.181 26.7206 108.133 25.6708C109.088 24.6198 110.374 24.0936 111.991 24.092C113.55 24.0906 114.803 24.6076 115.752 25.6413C116.659 26.6439 117.111 27.9394 117.112 29.53ZM114.665 29.5867C114.664 28.6129 114.453 27.778 114.03 27.0795C113.535 26.236 112.826 25.8147 111.908 25.8156C110.962 25.8164 110.238 26.2391 109.744 27.0836C109.322 27.783 109.113 28.6327 109.113 29.6362C109.115 30.6109 109.326 31.4481 109.749 32.1446C110.261 32.9881 110.973 33.4093 111.895 33.4085C112.798 33.4076 113.505 32.976 114.016 32.1194C114.449 31.4034 114.666 30.5625 114.665 29.5867ZM124.785 26.3725C124.552 26.3294 124.302 26.3075 124.041 26.3078C123.211 26.3087 122.569 26.6217 122.118 27.2511C121.727 27.8053 121.53 28.5055 121.531 29.3506L121.536 34.9278L119.176 34.9299L119.169 27.6484C119.167 26.4244 119.143 25.308 119.097 24.3023L121.153 24.3003L121.241 26.3337H121.307C121.556 25.6346 121.947 25.0704 122.485 24.6479C123.011 24.2675 123.579 24.0774 124.191 24.0769C124.409 24.0767 124.606 24.092 124.781 24.1196L124.785 26.3725ZM135.345 29.0971C135.346 29.5203 135.319 29.8768 135.26 30.1684L128.179 30.1751C128.206 31.2252 128.55 32.0291 129.208 32.5821C129.806 33.0757 130.577 33.323 131.525 33.322C132.573 33.321 133.53 33.154 134.39 32.8176L134.762 34.4554C133.756 34.895 132.57 35.1144 131.2 35.1157C129.553 35.1173 128.259 34.6333 127.317 33.6661C126.377 32.6979 125.905 31.3958 125.903 29.7641C125.902 28.1625 126.339 26.8274 127.213 25.7622C128.129 24.6248 129.367 24.0552 130.926 24.0538C132.458 24.0524 133.617 24.6195 134.405 25.7551C135.03 26.655 135.344 27.7713 135.345 29.0971ZM133.094 28.4868C133.11 27.7857 132.954 27.1821 132.633 26.6718C132.224 26.0142 131.595 25.687 130.753 25.6879C129.981 25.6886 129.352 26.0092 128.875 26.6522C128.482 27.1632 128.249 27.777 128.178 28.4894L133.094 28.4868Z" fill="white"/>
<path d="M54.3186 10.5964L53.4424 10.5973C53.3903 10.3452 53.2994 10.1239 53.1696 9.93317C53.0422 9.74245 52.8865 9.5824 52.7026 9.45301C52.5211 9.3212 52.3196 9.22248 52.098 9.15672C51.8764 9.09097 51.6456 9.05818 51.4052 9.05842C50.9671 9.05885 50.5702 9.16993 50.2146 9.39174C49.8615 9.61355 49.5802 9.94014 49.371 10.3714C49.1641 10.8028 49.0609 11.3318 49.0615 11.9585C49.0622 12.5852 49.1662 13.114 49.3741 13.5449C49.5841 13.9759 49.866 14.3019 50.2196 14.5231C50.5756 14.7441 50.9726 14.8544 51.4108 14.854C51.6511 14.8539 51.882 14.8207 52.1034 14.7544C52.3247 14.6883 52.5261 14.5904 52.7073 14.4605C52.891 14.3284 53.0465 14.1669 53.1734 13.9759C53.3028 13.7827 53.3933 13.5611 53.4449 13.3113L54.3214 13.3104C54.2557 13.6804 54.1359 14.0116 53.9618 14.3039C53.7878 14.5963 53.5712 14.8449 53.3123 15.0501C53.0533 15.253 52.7625 15.4076 52.4398 15.5139C52.1195 15.6203 51.7768 15.6737 51.4116 15.6739C50.7943 15.6745 50.2452 15.5243 49.7645 15.2232C49.2835 14.922 48.9049 14.4936 48.6288 13.9379C48.3526 13.3822 48.2141 12.7227 48.2134 11.9593C48.2127 11.1959 48.3498 10.5362 48.6249 9.97989C48.9 9.42368 49.2778 8.99449 49.7582 8.6925C50.2385 8.39046 50.7873 8.23913 51.4045 8.23853C51.7696 8.23822 52.1125 8.29089 52.433 8.39658C52.7559 8.50233 53.047 8.65754 53.3064 8.86225C53.5658 9.06461 53.7827 9.31174 53.9573 9.60373C54.1319 9.89335 54.2524 10.2242 54.3186 10.5964Z" fill="white"/>
<path d="M55.6264 15.5711L55.6212 10.1429L56.4552 10.1421L56.4575 12.5027L57.0087 12.5022L58.9573 10.1397L60.0315 10.1387L57.8431 12.7559L60.065 15.5668L58.9908 15.5678L57.2074 13.2795L56.4582 13.2802L56.4604 15.5702L55.6264 15.5711Z" fill="white"/>
<path d="M62.5686 15.6914C62.2243 15.6917 61.9122 15.6273 61.6317 15.4979C61.3517 15.3662 61.1286 15.1769 60.9632 14.9297C60.7984 14.68 60.7153 14.3785 60.7153 14.0252C60.7147 13.7141 60.7759 13.462 60.8984 13.2687C61.0208 13.073 61.1844 12.9198 61.3892 12.8089C61.5941 12.6979 61.8201 12.6152 62.0674 12.5608C62.3171 12.504 62.568 12.4591 62.8201 12.4258C63.1498 12.3831 63.417 12.351 63.6219 12.3296C63.8291 12.3059 63.98 12.2668 64.0746 12.2126C64.1709 12.1583 64.2188 12.064 64.2188 11.9297V11.9015C64.2188 11.5527 64.123 11.2819 63.9321 11.0889C63.7431 10.8959 63.457 10.7996 63.0728 10.7999C62.6746 10.8004 62.3625 10.8878 62.1365 11.0623C61.9104 11.2369 61.7516 11.4232 61.6601 11.6212L60.8681 11.3392C61.0093 11.0093 61.1971 10.7523 61.4329 10.5683C61.6704 10.382 61.9298 10.2521 62.2098 10.1788C62.4928 10.1031 62.7704 10.0652 63.0437 10.0649C63.2182 10.0648 63.4182 10.0858 63.6443 10.128C63.8734 10.1678 64.0933 10.2512 64.3055 10.3783C64.5206 10.5052 64.6982 10.6971 64.84 10.9537C64.9818 11.2104 65.0527 11.5543 65.0527 11.9855L65.0563 15.5618L64.2224 15.5626L64.2218 14.8276H64.1794C64.123 14.9454 64.0285 15.0715 63.897 15.2059C63.7649 15.3404 63.5897 15.4548 63.3703 15.5493C63.1516 15.6437 62.8843 15.6911 62.5686 15.6914ZM62.6952 14.9421C63.0249 14.9418 63.3031 14.8767 63.5291 14.7469C63.7576 14.6172 63.9291 14.4497 64.0443 14.2446C64.1618 14.0395 64.2206 13.8239 64.2206 13.5977L64.22 12.8344C64.1842 12.8769 64.1067 12.9158 63.9867 12.9512C63.8691 12.9843 63.7322 13.0139 63.577 13.04C63.4237 13.0637 63.274 13.085 63.1279 13.104C62.9843 13.1207 62.868 13.1349 62.7783 13.1468C62.5613 13.1753 62.3589 13.2214 62.1704 13.2852C61.9844 13.3466 61.8335 13.4398 61.7183 13.5648C61.6056 13.6874 61.5492 13.8547 61.5492 14.0667C61.5498 14.3565 61.6571 14.5755 61.8716 14.7238C62.0886 14.8697 62.3631 14.9424 62.6952 14.9421Z" fill="white"/>
<path d="M70.7574 10.1281L70.7628 15.5562L69.929 15.557L69.9235 10.1289L70.7574 10.1281ZM70.435 12.7152L70.4356 13.4927C70.2471 13.5636 70.0605 13.6262 69.8738 13.6805C69.6877 13.7325 69.4926 13.774 69.2878 13.8048C69.0829 13.8332 68.8575 13.8476 68.6127 13.8478C67.9975 13.8485 67.5042 13.6828 67.1315 13.351C66.7612 13.0192 66.5758 12.521 66.5752 11.8567L66.5734 10.118L67.4073 10.1172L67.4091 11.8558C67.4097 12.1339 67.4624 12.3623 67.5691 12.5413C67.6751 12.7202 67.8188 12.8532 68.0006 12.9402C68.1818 13.0272 68.386 13.0706 68.612 13.0704C68.9654 13.07 69.2847 13.0379 69.5696 12.974C69.8568 12.9078 70.1453 12.8215 70.435 12.7152Z" fill="white"/>
<path d="M73.8905 15.6806C73.5463 15.6809 73.2342 15.6165 72.9536 15.4871C72.6736 15.3554 72.4506 15.166 72.2852 14.9188C72.1203 14.6692 72.0373 14.3677 72.0373 14.0144C72.0367 13.7033 72.0979 13.4512 72.2203 13.2579C72.3427 13.0622 72.5064 12.909 72.7112 12.798C72.916 12.6871 73.1421 12.6044 73.3894 12.55C73.639 12.4932 73.8899 12.4482 74.142 12.415C74.4717 12.3723 74.739 12.3402 74.9438 12.3188C75.1511 12.2951 75.302 12.256 75.3959 12.2017C75.4929 12.1474 75.5408 12.0532 75.5408 11.9189V11.8906C75.5408 11.5419 75.445 11.2711 75.2535 11.0781C75.065 10.8851 74.779 10.7888 74.3948 10.7891C73.9966 10.7895 73.6845 10.8769 73.4584 11.0515C73.2324 11.2261 73.0736 11.4124 72.9821 11.6104L72.19 11.3284C72.3312 10.9984 72.5191 10.7414 72.7548 10.5574C72.9924 10.3711 73.2518 10.2413 73.5318 10.168C73.8148 10.0923 74.0923 10.0544 74.3657 10.0541C74.5402 10.0539 74.7402 10.0749 74.9662 10.1171C75.1953 10.157 75.4153 10.2404 75.6274 10.3674C75.842 10.4944 76.0201 10.6862 76.1619 10.9429C76.3031 11.1996 76.3746 11.5435 76.3746 11.9746L76.3783 15.5509L75.5444 15.5518L75.5438 14.8167H75.5014C75.445 14.9346 75.3505 15.0607 75.219 15.1952C75.0868 15.3296 74.9117 15.444 74.6923 15.5385C74.4735 15.6329 74.2063 15.6803 73.8905 15.6806ZM74.0172 14.9313C74.3469 14.931 74.625 14.8658 74.8511 14.736C75.0796 14.6063 75.2511 14.4389 75.3662 14.2337C75.4838 14.0287 75.5426 13.8131 75.5426 13.5869L75.5414 12.8236C75.5062 12.866 75.4286 12.905 75.3086 12.9404C75.1911 12.9735 75.0541 13.0031 74.8984 13.0291C74.7456 13.0528 74.596 13.0742 74.4499 13.0932C74.3063 13.1098 74.1899 13.124 74.1002 13.1359C73.8833 13.1644 73.6808 13.2106 73.4924 13.2743C73.3063 13.3358 73.1554 13.429 73.0403 13.554C72.9276 13.6766 72.8712 13.8439 72.8712 14.0559C72.8718 14.3457 72.9791 14.5647 73.1936 14.713C73.4106 14.8589 73.6851 14.9315 74.0172 14.9313Z" fill="white"/>
<path d="M77.158 10.8994L77.1568 10.1219L81.5675 10.1177L81.5681 10.8952L79.787 10.8968L79.7912 15.5475L78.9573 15.5483L78.9531 10.8977L77.158 10.8994Z" fill="white"/>
<path d="M83.5064 12.0812L85.0615 12.0797C85.6972 12.0791 86.1839 12.24 86.5214 12.5624C86.8584 12.8849 87.0275 13.2934 87.0281 13.7882C87.0281 14.1133 86.9529 14.4091 86.8026 14.6755C86.6523 14.9395 86.4305 15.1506 86.139 15.3086C85.8469 15.4645 85.4888 15.5425 85.0645 15.5429L82.7889 15.5451L82.7834 10.117L83.6179 10.1162L83.6222 14.7668L85.0639 14.7654C85.3936 14.7651 85.6645 14.6777 85.8766 14.5032C86.0881 14.3287 86.1942 14.1047 86.1942 13.8314C86.1936 13.544 86.0875 13.3097 85.8754 13.1285C85.6627 12.9473 85.3918 12.8569 85.0621 12.8572L83.507 12.8586L83.5064 12.0812Z" fill="white"/>
<path d="M91.0985 15.5367L91.093 10.1084L93.3123 10.1063C93.8965 10.1058 94.3607 10.2373 94.705 10.5008C95.0492 10.7644 95.2219 11.1129 95.2219 11.5464C95.2225 11.8762 95.1249 12.1319 94.9298 12.3135C94.734 12.4927 94.4831 12.6143 94.1771 12.6782C94.3777 12.7063 94.5722 12.7768 94.7607 12.8897C94.9516 13.0026 95.1092 13.1579 95.2346 13.3557C95.3595 13.5511 95.4219 13.7914 95.4225 14.0764C95.4225 14.3545 95.3522 14.6031 95.211 14.8224C95.0698 15.0415 94.8674 15.2148 94.6038 15.3424C94.3401 15.4698 94.0244 15.5338 93.6571 15.534L91.0985 15.5367ZM91.8893 14.7724L93.6559 14.7709C93.9438 14.7706 94.1686 14.702 94.331 14.5652C94.4934 14.4283 94.5747 14.2422 94.5741 14.0066C94.5741 13.7263 94.4922 13.506 94.3298 13.346C94.1668 13.1836 93.942 13.1025 93.6547 13.1028L91.8875 13.1045L91.8893 14.7724ZM91.8869 12.3835L93.3147 12.3822C93.5383 12.382 93.7305 12.3512 93.8905 12.2897C94.0504 12.226 94.1729 12.1363 94.2577 12.0208C94.345 11.903 94.388 11.7639 94.388 11.6037C94.388 11.3752 94.2922 11.1962 94.1013 11.0668C93.9105 10.9351 93.6474 10.8694 93.3129 10.8697L91.8857 10.871L91.8869 12.3835Z" fill="white"/>
</g>
</g>
<defs>
<clipPath id="clip0_12_21342">
<rect width="150.295" height="44.8462" fill="white" transform="translate(0.0201416)"/>
</clipPath>
</defs>
</svg>
