<svg width="151" height="46" viewBox="0 0 151 46" fill="none" xmlns="http://www.w3.org/2000/svg">
<g clip-path="url(#clip0_12_21299)">
<mask id="mask0_12_21299" style="mask-type:luminance" maskUnits="userSpaceOnUse" x="0" y="0" width="151" height="46">
<path d="M150.315 0.810059H0.0198364V45.1829H150.315V0.810059Z" fill="white"/>
</mask>
<g mask="url(#mask0_12_21299)">
<path d="M144.726 45.0442L6.5102 45.1769C3.41416 45.1798 0.979228 42.7495 0.976259 39.6536L0.9444 6.48174C0.94143 3.3857 3.37169 0.95077 6.46771 0.947797L144.683 0.815066C147.78 0.812093 150.215 3.24235 150.217 6.33839L150.249 39.5101C150.252 42.6062 147.823 45.0412 144.726 45.0442Z" fill="black"/>
<path d="M144.685 1.69965C147.227 1.6972 149.33 3.79606 149.333 6.33924L149.364 39.511C149.367 42.0541 147.269 44.1571 144.725 44.1596L6.50935 44.2923C3.96618 44.2947 1.86328 42.1959 1.86084 39.6527L1.82898 6.48088C1.82654 3.93772 3.9254 1.83482 6.46856 1.83238L144.685 1.69965ZM144.683 0.815066L6.46771 0.947797C3.37169 0.95077 0.941533 3.49628 0.9444 6.48174L0.976258 39.6536C0.979228 42.7495 3.41416 45.1798 6.5102 45.1769L144.726 45.0442C147.823 45.0412 150.252 42.6062 150.249 39.5101L150.217 6.33839C150.215 3.35292 147.78 0.812093 144.683 0.815066Z" fill="#A6A6A6"/>
<path d="M76.2624 24.9862C73.6086 24.9886 71.5093 26.9809 71.5124 29.7452C71.5148 32.399 73.6177 34.4979 76.2715 34.4954C78.9253 34.4928 81.024 32.5005 81.0216 29.7362C81.0186 26.8613 78.9162 24.9836 76.2624 24.9862ZM76.2697 32.505C74.8322 32.5064 73.6147 31.2912 73.6129 29.6327C73.6117 27.9742 74.8267 26.7566 76.2636 26.7552C77.7017 26.7539 78.9187 27.8584 78.9205 29.6276C78.9223 31.2863 77.7066 32.5037 76.2697 32.505ZM65.9787 24.996C63.3249 24.9985 61.2262 26.9908 61.2287 29.7551C61.2317 32.4089 63.3346 34.5077 65.9884 34.5053C68.6422 34.5027 70.7409 32.5104 70.7385 29.7461C70.7354 26.8712 68.6325 24.9934 65.9787 24.996ZM65.986 32.5149C64.5485 32.5162 63.3316 31.3011 63.3298 29.6426C63.328 27.9841 64.543 26.7665 65.9805 26.7651C67.418 26.7638 68.6356 27.8683 68.6374 29.6374C68.6386 31.2961 67.4235 32.5135 65.986 32.5149ZM53.7069 26.4452L53.7087 28.4355L58.4633 28.4309C58.3538 29.5368 57.9124 30.4218 57.3601 30.9752C56.6973 31.6392 55.5923 32.4143 53.7126 32.4162C50.7271 32.4191 48.5134 30.099 48.5105 27.1136C48.5077 24.1282 50.8275 21.8039 53.7024 21.8012C55.2504 21.7996 56.4673 22.4619 57.3526 23.2352L58.7887 21.7963C57.5713 20.6917 56.0224 19.8086 53.8111 19.8107C49.8304 19.8146 46.4059 23.1351 46.4097 27.1156C46.4135 31.0963 49.8445 34.4101 53.8251 34.4063C56.0364 34.4042 57.5839 33.7393 58.9094 32.3005C60.235 30.9725 60.6754 29.0922 60.6741 27.6548C60.6735 27.2125 60.6735 26.7703 60.5623 26.4386L53.7069 26.4452ZM103.908 27.945C103.465 26.8396 102.357 24.9611 99.9249 24.9634C97.4923 24.9657 95.5039 26.8474 95.5063 29.7223C95.5087 32.376 97.5013 34.4749 100.155 34.4723C102.256 34.4703 103.582 33.1422 104.023 32.3678L102.474 31.2636C101.922 32.0382 101.259 32.5916 100.153 32.5927C99.0473 32.5936 98.3837 32.1521 97.8298 31.1574L104.13 28.4976L103.908 27.945ZM97.4965 29.4991C97.4947 27.73 98.9316 26.7335 99.9267 26.7326C100.701 26.7317 101.475 27.1733 101.697 27.726L97.4965 29.4991ZM92.304 34.0376L94.4051 34.0356L94.3918 20.214L92.2907 20.216L92.304 34.0376ZM88.9787 25.9691C88.4254 25.4167 87.5406 24.8647 86.4346 24.8657C84.1129 24.8679 81.9034 26.971 81.9058 29.6247C81.9082 32.2785 84.0111 34.2668 86.4437 34.2643C87.5497 34.2634 88.4339 33.7097 88.8751 33.1563L88.986 33.1562L88.9866 33.8196C88.9884 35.5888 87.9939 36.585 86.4461 36.5865C85.2298 36.5877 84.3444 35.7039 84.1226 34.9301L82.3542 35.7058C82.9081 36.9216 84.2366 38.4684 86.5583 38.4661C88.9909 38.4638 90.9799 37.0244 90.9768 33.5966L90.969 25.1931L88.9781 25.195L88.9787 25.9691ZM86.5528 32.4952C85.1153 32.4965 83.8978 31.2814 83.896 29.6228C83.8948 27.9643 85.1099 26.7467 86.5474 26.7453C87.9849 26.744 89.0915 27.9593 89.0933 29.6178C89.0945 31.2764 87.9903 32.4938 86.5528 32.4952ZM113.521 20.1957L108.545 20.2005L108.558 34.0221L110.659 34.0201L110.654 28.8231L113.529 28.8204C115.851 28.8181 118.061 27.1574 118.058 24.5036C118.055 21.85 115.843 20.1934 113.521 20.1957ZM113.637 26.8299L110.652 26.8328L110.647 22.0781L113.633 22.0753C115.181 22.0738 116.067 23.3999 116.068 24.395C115.959 25.6114 115.075 26.8286 113.637 26.8299ZM126.351 24.8274C124.804 24.8288 123.256 25.4938 122.705 26.9318L124.585 27.7041C125.027 26.9295 125.69 26.7078 126.464 26.7071C127.569 26.706 128.566 27.3684 128.677 28.4742V28.5846C128.345 28.3638 127.46 28.033 126.576 28.0338C124.585 28.0357 122.596 29.1433 122.598 31.1337C122.6 33.0133 124.26 34.2282 126.029 34.2265C127.466 34.225 128.129 33.561 128.682 32.897L128.792 32.8968L128.793 34.0026L130.783 34.0007L130.778 28.6931C130.555 26.2608 128.674 24.8251 126.351 24.8274ZM126.138 32.4571C125.474 32.4578 124.479 32.127 124.478 31.2424C124.477 30.1367 125.693 29.8037 126.688 29.8029C127.573 29.802 128.015 30.0228 128.568 30.2433C128.348 31.5704 127.243 32.4561 126.138 32.4571ZM137.741 25.1482L135.425 31.1214L135.314 31.1215L132.876 25.1529L130.664 25.1551L134.321 33.555L132.225 38.2011L134.326 38.1991L139.952 25.146L137.741 25.1482ZM119.173 34.0119L121.274 34.0099L121.261 20.1883L119.16 20.1903L119.173 34.0119Z" fill="white"/>
<path d="M12.4472 9.23474C12.1157 9.56678 12.0057 10.1198 12.0064 10.7833L12.0298 35.2205C12.0305 35.8839 12.2522 36.4367 12.5842 36.7681L12.6949 36.8786L26.3931 23.1539L26.3929 22.9328L12.4472 9.23474Z" fill="url(#paint0_linear_12_21299)"/>
<path d="M30.8207 27.7938L26.2827 23.2645L26.2825 22.9328L30.8116 18.3948L30.9223 18.5053L36.3435 21.5962C37.8924 22.4794 37.8938 23.9169 36.3466 24.8029L30.8207 27.7938Z" fill="url(#paint1_linear_12_21299)"/>
<path d="M30.931 27.6829L26.2823 23.0431L12.4736 36.8784C13.0271 37.4308 13.8011 37.4299 14.7958 36.9867L30.931 27.6829Z" fill="url(#paint2_linear_12_21299)"/>
<path d="M30.9217 18.3945L14.7688 9.23224C13.773 8.68027 12.9991 8.79159 12.4468 9.34502L26.2818 23.0432L30.9217 18.3945Z" fill="url(#paint3_linear_12_21299)"/>
<path opacity="0.2" d="M30.8204 27.5723L14.7956 36.6548C13.9116 37.2086 13.1374 37.0987 12.5841 36.657L12.4736 36.7676L12.5844 36.8781C13.1377 37.3199 13.9118 37.4298 14.7958 36.876L30.8204 27.5723Z" fill="black"/>
<path opacity="0.12" d="M12.473 36.657C12.141 36.3255 12.0299 35.7728 12.0292 35.1094L12.0294 35.2199C12.03 35.8834 12.2516 36.436 12.5837 36.7675L12.5836 36.6569L12.473 36.657ZM36.3457 24.4706L30.82 27.5722L30.9306 27.6827L36.3458 24.5813C37.1195 24.1383 37.4507 23.585 37.4502 23.0321C37.4507 23.585 37.0089 24.0278 36.3457 24.4706Z" fill="black"/>
<path opacity="0.25" d="M14.7684 9.34348L36.3425 21.5967C37.0063 22.0384 37.4491 22.4803 37.4496 23.0331C37.4491 22.4803 37.1168 21.9277 36.3423 21.4862L14.7682 9.23288C13.2193 8.34978 12.0036 9.01441 12.0053 10.7836L12.0054 10.8942C12.0038 9.23555 13.2194 8.46038 14.7684 9.34348Z" fill="white"/>
<path d="M52.9822 9.74924L52.1058 9.75009C52.0538 9.49804 51.9628 9.27666 51.8331 9.086C51.7057 8.89528 51.55 8.73523 51.3662 8.60578C51.1846 8.47403 50.9832 8.37531 50.7615 8.30955C50.54 8.2438 50.3091 8.21101 50.0688 8.21126C49.6306 8.21168 49.2337 8.32277 48.8781 8.54457C48.5251 8.76638 48.2438 9.09297 48.0345 9.52428C47.8276 9.95565 47.7244 10.4847 47.725 11.1113C47.7256 11.738 47.8298 12.2668 48.0376 12.6978C48.2476 13.1287 48.5295 13.4547 48.8832 13.6758C49.2391 13.897 49.6362 14.0073 50.0744 14.0069C50.3147 14.0067 50.5456 13.9734 50.7669 13.9073C50.9883 13.8411 51.1897 13.7432 51.3709 13.6134C51.5545 13.4813 51.7099 13.3197 51.8369 13.1288C51.9664 12.9355 52.0568 12.7139 52.1085 12.4641L52.9848 12.4633C52.9193 12.8333 52.7994 13.1644 52.6254 13.4567C52.4513 13.749 52.2347 13.9977 51.9758 14.2029C51.7169 14.4058 51.426 14.5604 51.1034 14.6667C50.7831 14.7731 50.4403 14.8264 50.0752 14.8268C49.4579 14.8273 48.9088 14.6771 48.428 14.376C47.947 14.0749 47.5684 13.6465 47.2923 13.0908C47.016 12.535 46.8776 11.8755 46.877 11.1121C46.8762 10.3488 47.0134 9.689 47.2885 9.13272C47.5636 8.57645 47.9413 8.14732 48.4217 7.84534C48.9019 7.54329 49.4507 7.39196 50.0681 7.39136C50.4332 7.39106 50.776 7.44372 51.0965 7.54941C51.4194 7.6551 51.7106 7.81037 51.97 8.01508C52.2292 8.21744 52.4462 8.46458 52.6208 8.75656C52.7954 9.04618 52.9159 9.37707 52.9822 9.74924Z" fill="white"/>
<path d="M54.2905 14.7238L54.2853 9.29575L55.1194 9.2949L55.1216 11.6556L55.6728 11.655L57.6214 9.29253L58.6957 9.2915L56.507 11.9087L58.7291 14.7196L57.6547 14.7206L55.8715 12.4323L55.1223 12.433L55.1245 14.723L54.2905 14.7238Z" fill="white"/>
<path d="M61.233 14.8442C60.8894 14.8445 60.5769 14.78 60.2965 14.6508C60.016 14.5191 59.7933 14.3296 59.6281 14.0824C59.4628 13.8329 59.3801 13.5314 59.3799 13.178C59.3796 12.867 59.4405 12.6149 59.5628 12.4215C59.6852 12.2259 59.8488 12.0726 60.0536 11.9617C60.2584 11.8507 60.4846 11.7681 60.7318 11.7136C60.9815 11.6569 61.2324 11.6118 61.4845 11.5786C61.8142 11.5359 62.0814 11.5038 62.2863 11.4824C62.4935 11.4587 62.6444 11.4197 62.739 11.3654C62.8353 11.3111 62.8838 11.2168 62.8832 11.0825V11.0542C62.8832 10.7056 62.7875 10.4347 62.5966 10.2417C62.4081 10.0487 62.1214 9.9524 61.7372 9.95277C61.3391 9.95313 61.0269 10.0406 60.8009 10.2152C60.575 10.3897 60.4163 10.576 60.3246 10.774L59.5327 10.4921C59.6737 10.1621 59.8619 9.90507 60.0974 9.72108C60.3352 9.53473 60.5942 9.40492 60.8742 9.33165C61.1572 9.25595 61.4348 9.21802 61.7081 9.21777C61.8827 9.21759 62.0833 9.23856 62.3093 9.2808C62.5378 9.32062 62.7584 9.40407 62.9705 9.53103C63.185 9.65805 63.3626 9.84992 63.5044 10.1066C63.6462 10.3632 63.7171 10.7072 63.7177 11.1383L63.7207 14.7146L62.8869 14.7154L62.8862 13.9803L62.8438 13.9804C62.7875 14.0983 62.6929 14.2244 62.5614 14.3588C62.4299 14.4932 62.2542 14.6076 62.0354 14.7021C61.816 14.7965 61.5487 14.8439 61.233 14.8442ZM61.3597 14.0949C61.6893 14.0946 61.9675 14.0295 62.1936 13.8997C62.422 13.77 62.5935 13.6025 62.7087 13.3974C62.8269 13.1924 62.885 12.9767 62.885 12.7506L62.8844 11.9872C62.8487 12.0296 62.7711 12.0686 62.6511 12.1041C62.5335 12.1371 62.3966 12.1667 62.2414 12.1928C62.0881 12.2165 61.9384 12.2379 61.7924 12.2568C61.6487 12.2735 61.5324 12.2877 61.4427 12.2996C61.2263 12.3281 61.0233 12.3742 60.8354 12.438C60.6488 12.4994 60.4983 12.5926 60.383 12.7176C60.27 12.8402 60.2137 13.0075 60.2139 13.2196C60.2141 13.5094 60.3215 13.7284 60.5361 13.8766C60.753 14.0224 61.0276 14.0952 61.3597 14.0949Z" fill="white"/>
<path d="M69.4221 9.28142L69.427 14.7096L68.5931 14.7103L68.5882 9.28226L69.4221 9.28142ZM69.0991 11.8686L69.1003 12.646C68.9118 12.7169 68.7246 12.7795 68.5385 12.8339C68.3525 12.8859 68.1567 12.9273 67.9519 12.9581C67.7471 12.9866 67.5222 13.001 67.2768 13.0012C66.6623 13.0018 66.1684 12.8362 65.7956 12.5043C65.4254 12.1725 65.2399 11.6744 65.2393 11.0101L65.2375 9.27136L66.072 9.27051L66.0732 11.0092C66.0738 11.2873 66.1271 11.5157 66.2332 11.6946C66.3393 11.8736 66.4835 12.0065 66.6647 12.0936C66.8465 12.1806 67.0501 12.2239 67.2762 12.2237C67.6295 12.2234 67.9489 12.1913 68.2337 12.1274C68.521 12.0612 68.8094 11.9749 69.0991 11.8686Z" fill="white"/>
<path d="M72.5546 14.8339C72.211 14.8342 71.8983 14.7697 71.6183 14.6404C71.3377 14.5088 71.1147 14.3193 70.9498 14.0721C70.7844 13.8226 70.702 13.5211 70.7014 13.1676C70.7014 12.8567 70.762 12.6045 70.8844 12.4112C71.0068 12.2155 71.1704 12.0623 71.3753 11.9513C71.5801 11.8404 71.8061 11.7578 72.0534 11.7033C72.3031 11.6465 72.554 11.6015 72.8061 11.5683C73.1358 11.5256 73.403 11.4935 73.6079 11.4721C73.8157 11.4484 73.966 11.4093 74.0606 11.355C74.1569 11.3007 74.2054 11.2065 74.2048 11.0722V11.0439C74.2048 10.6953 74.1091 10.4244 73.9182 10.2314C73.7291 10.0384 73.443 9.94209 73.0588 9.94245C72.6607 9.94282 72.3485 10.0303 72.1225 10.2049C71.8964 10.3794 71.7377 10.5657 71.6462 10.7637L70.8541 10.4817C70.9953 10.1517 71.1838 9.89476 71.4189 9.71077C71.6565 9.52441 71.9158 9.3946 72.1958 9.32127C72.4788 9.24564 72.757 9.2077 73.0297 9.2074C73.2043 9.20722 73.4049 9.22825 73.6309 9.27043C73.8594 9.3103 74.08 9.39369 74.2921 9.52072C74.5066 9.64774 74.6842 9.83955 74.826 10.0963C74.9678 10.3529 75.0387 10.6968 75.0393 11.1279L75.0423 14.7043L74.2084 14.7051L74.2078 13.97L74.1654 13.9701C74.1091 14.0879 74.0145 14.2141 73.883 14.3485C73.7515 14.4829 73.5758 14.5973 73.357 14.6917C73.1376 14.7862 72.8703 14.8336 72.5546 14.8339ZM72.6813 14.0845C73.0109 14.0842 73.2891 14.0192 73.5152 13.8894C73.7436 13.7596 73.9151 13.5921 74.0303 13.3871C74.1485 13.182 74.2066 12.9664 74.2066 12.7402L74.206 11.9769C74.1703 12.0193 74.0927 12.0583 73.9727 12.0937C73.8551 12.1268 73.7182 12.1564 73.563 12.1825C73.4097 12.2062 73.26 12.2275 73.114 12.2465C72.9703 12.2631 72.854 12.2774 72.7643 12.2892C72.5473 12.3177 72.3449 12.3638 72.1564 12.4277C71.9704 12.4891 71.8201 12.5823 71.7043 12.7073C71.5916 12.8299 71.5353 12.9972 71.5353 13.2093C71.5359 13.4991 71.6431 13.718 71.8577 13.8663C72.0746 14.0121 72.3492 14.0849 72.6813 14.0845Z" fill="white"/>
<path d="M75.8215 10.0527L75.8209 9.27524L80.2309 9.271L80.2315 10.0485L78.4504 10.0502L78.4553 14.7008L77.6214 14.7016L77.6165 10.051L75.8215 10.0527Z" fill="white"/>
<path d="M82.1709 11.2335L83.726 11.232C84.3623 11.2314 84.849 11.3923 85.1859 11.7148C85.5235 12.0372 85.692 12.4458 85.6926 12.9405C85.6932 13.2657 85.618 13.5614 85.4671 13.8278C85.3168 14.0918 85.0956 14.3028 84.8035 14.461C84.5114 14.6168 84.1533 14.6949 83.729 14.6952L81.4534 14.6974L81.4485 9.26934L82.2824 9.26855L82.2867 13.9192L83.7284 13.9178C84.0581 13.9175 84.3296 13.8301 84.5411 13.6555C84.7532 13.4809 84.8587 13.2571 84.8587 12.9838C84.8581 12.6963 84.752 12.462 84.5399 12.2808C84.3278 12.0996 84.0569 12.0091 83.7266 12.0095L82.1721 12.011L82.1709 11.2335Z" fill="white"/>
<path d="M89.762 14.6899L89.7566 9.26177L91.9765 9.25965C92.5601 9.2591 93.0249 9.39061 93.3691 9.65411C93.7128 9.91767 93.8855 10.2662 93.8861 10.6997C93.8861 11.0295 93.7885 11.2852 93.5934 11.4668C93.3976 11.6461 93.1473 11.7676 92.8407 11.8315C93.0413 11.8596 93.2358 11.9301 93.4243 12.043C93.6152 12.1559 93.7734 12.3112 93.8982 12.5091C94.023 12.7044 94.0861 12.9447 94.0861 13.2297C94.0867 13.5078 94.0158 13.7564 93.8746 13.9756C93.7334 14.1948 93.5315 14.3682 93.2673 14.4957C93.0037 14.6232 92.6879 14.6871 92.3207 14.6874L89.762 14.6899ZM90.5529 13.9258L92.3201 13.9241C92.6074 13.9238 92.8322 13.8553 92.9946 13.7185C93.157 13.5817 93.2382 13.3955 93.2382 13.1599C93.2376 12.8795 93.1564 12.6593 92.9934 12.4993C92.831 12.3369 92.6055 12.2559 92.3183 12.2561L90.5511 12.2578L90.5529 13.9258ZM90.5505 11.5369L91.9783 11.5355C92.2019 11.5353 92.394 11.5045 92.5546 11.443C92.7146 11.3793 92.837 11.2897 92.9213 11.1742C93.0085 11.0563 93.0522 10.9172 93.0522 10.757C93.0516 10.5285 92.9564 10.3495 92.7649 10.2201C92.574 10.0884 92.3116 10.0227 91.9771 10.023L90.5493 10.0243L90.5505 11.5369Z" fill="white"/>
</g>
</g>
<defs>
<linearGradient id="paint0_linear_12_21299" x1="25.0542" y1="10.5606" x2="6.51397" y2="29.1352" gradientUnits="userSpaceOnUse">
<stop stop-color="#00A0FF"/>
<stop offset="0.007" stop-color="#00A1FF"/>
<stop offset="0.26" stop-color="#00BEFF"/>
<stop offset="0.512" stop-color="#00D2FF"/>
<stop offset="0.76" stop-color="#00DFFF"/>
<stop offset="1" stop-color="#00E3FF"/>
</linearGradient>
<linearGradient id="paint1_linear_12_21299" x1="38.3729" y1="23.0329" x2="11.6168" y2="23.0585" gradientUnits="userSpaceOnUse">
<stop stop-color="#FFE000"/>
<stop offset="0.409" stop-color="#FFBD00"/>
<stop offset="0.775" stop-color="#FFA500"/>
<stop offset="1" stop-color="#FF9C00"/>
</linearGradient>
<linearGradient id="paint2_linear_12_21299" x1="28.4155" y1="25.5799" x2="3.27485" y2="50.7689" gradientUnits="userSpaceOnUse">
<stop stop-color="#FF3A44"/>
<stop offset="1" stop-color="#C31162"/>
</linearGradient>
<linearGradient id="paint3_linear_12_21299" x1="9.00768" y1="1.13917" x2="20.2563" y2="12.3662" gradientUnits="userSpaceOnUse">
<stop stop-color="#32A071"/>
<stop offset="0.069" stop-color="#2DA771"/>
<stop offset="0.476" stop-color="#15CF74"/>
<stop offset="0.801" stop-color="#06E775"/>
<stop offset="1" stop-color="#00F076"/>
</linearGradient>
<clipPath id="clip0_12_21299">
<rect width="150.295" height="44.8462" fill="white" transform="translate(0.0199585 0.810059)"/>
</clipPath>
</defs>
</svg>
