<svg width="129" height="39" viewBox="0 0 129 39" fill="none" xmlns="http://www.w3.org/2000/svg">
<rect x="0.394546" y="0.394546" width="128.096" height="37.8764" rx="4.76085" fill="#F5F5F5" stroke="black" stroke-width="0.789092"/>
<path d="M64.7619 20.6381C62.5131 20.6402 60.7341 22.3285 60.7367 24.6709C60.7387 26.9198 62.5208 28.6983 64.7696 28.6963C67.0184 28.6941 68.7968 27.0058 68.7948 24.6633C68.7922 22.2271 67.0107 20.6359 64.7619 20.6381ZM64.768 27.0096C63.5499 27.0108 62.5182 25.981 62.5166 24.5756C62.5156 23.1702 63.5453 22.1384 64.7629 22.1372C65.9816 22.1361 67.0128 23.072 67.0143 24.5712C67.0158 25.9768 65.9857 27.0084 64.768 27.0096ZM56.0475 20.6465C53.7987 20.6486 52.0202 22.3369 52.0223 24.6793C52.0249 26.9281 53.8069 28.7067 56.0557 28.7046C58.3045 28.7024 60.0829 27.0141 60.0809 24.6717C60.0783 22.2355 58.2963 20.6443 56.0475 20.6465ZM56.0536 27.018C54.8355 27.0191 53.8043 25.9894 53.8028 24.584C53.8012 23.1786 54.8309 22.1468 56.049 22.1456C57.2672 22.1445 58.2989 23.0804 58.3004 24.5796C58.3014 25.9852 57.2718 27.0168 56.0536 27.018ZM45.6484 21.8745L45.6499 23.5611L49.679 23.5572C49.5862 24.4943 49.2121 25.2443 48.7441 25.7132C48.1825 26.2759 47.2461 26.9327 45.6532 26.9343C43.1233 26.9368 41.2474 24.9708 41.245 22.441C41.2426 19.9111 43.2084 17.9415 45.6446 17.9392C46.9563 17.9379 47.9876 18.4991 48.7378 19.1543L49.9547 17.9351C48.9231 16.999 47.6106 16.2506 45.7367 16.2524C42.3634 16.2557 39.4615 19.0696 39.4647 22.4426C39.468 25.8158 42.3754 28.624 45.7485 28.6208C47.6224 28.619 48.9338 28.0556 50.057 26.8363C51.1803 25.7109 51.5534 24.1176 51.5524 22.8995C51.5519 22.5248 51.5519 22.15 51.4577 21.8689L45.6484 21.8745ZM88.1889 23.1454C87.813 22.2088 86.8747 20.6169 84.8134 20.6188C82.752 20.6208 81.067 22.2153 81.0691 24.6515C81.0711 26.9002 82.7597 28.6789 85.0085 28.6767C86.789 28.675 87.9121 27.5495 88.2865 26.8933L86.9739 25.9576C86.5055 26.614 85.9442 27.083 85.007 27.0839C84.0697 27.0847 83.5074 26.7105 83.038 25.8676L88.3769 23.6137L88.1889 23.1454ZM82.7556 24.4624C82.754 22.9632 83.9716 22.1188 84.8149 22.118C85.4707 22.1173 86.127 22.4915 86.315 22.9598L82.7556 24.4624ZM78.3555 28.3083L80.136 28.3066L80.1247 16.5943L78.3442 16.596L78.3555 28.3083ZM75.5376 21.4711C75.0688 21.003 74.319 20.5352 73.3818 20.5361C71.4144 20.5379 69.542 22.3201 69.544 24.5688C69.5461 26.8176 71.3281 28.5026 73.3895 28.5005C74.3267 28.4996 75.076 28.0305 75.4498 27.5615L75.5438 27.5614L75.5443 28.1236C75.5459 29.6228 74.7031 30.4669 73.3915 30.4683C72.3608 30.4692 71.6105 29.7203 71.4226 29.0646L69.9241 29.7219C70.3934 30.7522 71.5191 32.0629 73.4865 32.061C75.5479 32.059 77.2334 30.8393 77.2308 27.9346L77.2241 20.8135L75.5371 20.8151L75.5376 21.4711ZM73.4819 27.0013C72.2638 27.0024 71.2321 25.9727 71.2305 24.5672C71.2295 23.1618 72.2592 22.13 73.4773 22.1289C74.6954 22.1277 75.6332 23.1576 75.6347 24.563C75.6357 25.9685 74.7001 27.0001 73.4819 27.0013ZM96.3343 16.5788L92.1181 16.5828L92.1294 28.2951L93.9093 28.2934L93.9052 23.8896L96.3415 23.8873C98.3089 23.8853 100.182 22.4781 100.18 20.2293C100.177 17.9805 98.3022 16.5768 96.3343 16.5788ZM96.4334 22.2005L93.9037 22.203L93.8996 18.1739L96.4298 18.1715C97.7414 18.1702 98.4922 19.2939 98.4932 20.1372C98.4003 21.168 97.6515 22.1994 96.4334 22.2005ZM107.207 20.5036C105.896 20.5048 104.584 21.0683 104.117 22.2869L105.711 22.9413C106.085 22.2849 106.647 22.0971 107.303 22.0965C108.239 22.0955 109.084 22.6568 109.178 23.5939V23.6875C108.897 23.5003 108.147 23.22 107.397 23.2207C105.711 23.2223 104.025 24.1609 104.027 25.8475C104.028 27.4403 105.435 28.4698 106.934 28.4684C108.152 28.4671 108.713 27.9044 109.182 27.3417L109.275 27.3416L109.276 28.2787L110.963 28.2771L110.959 23.7794C110.769 21.7183 109.175 20.5017 107.207 20.5036ZM107.026 26.969C106.464 26.9696 105.62 26.6893 105.62 25.9397C105.619 25.0027 106.649 24.7205 107.493 24.7198C108.242 24.7191 108.617 24.9061 109.086 25.0931C108.899 26.2176 107.963 26.9682 107.026 26.969ZM116.859 20.7754L114.896 25.8371L114.802 25.8372L112.736 20.7794L110.862 20.7813L113.961 27.8993L112.184 31.8365L113.964 31.8348L118.733 20.7736L116.859 20.7754ZM101.124 28.2865L102.905 28.2848L102.893 16.5724L101.113 16.5741L101.124 28.2865Z" fill="black"/>
<path d="M10.6852 7.29071C10.4043 7.57208 10.3111 8.04069 10.3116 8.60293L10.3315 29.311C10.3321 29.8731 10.5199 30.3416 10.8013 30.6224L10.8951 30.716L22.5029 19.0858L22.5028 18.8984L10.6852 7.29071Z" fill="url(#paint0_linear_12_22539)"/>
<path d="M26.2548 23.0173L22.4094 19.1791L22.4092 18.8981L26.2472 15.0526L26.341 15.1462L30.9348 17.7654C32.2474 18.5138 32.2486 19.732 30.9375 20.4828L26.2548 23.0173Z" fill="url(#paint1_linear_12_22539)"/>
<path d="M26.3484 22.9237L22.4091 18.9919L10.7076 30.7159C11.1766 31.184 11.8325 31.1832 12.6754 30.8077L26.3484 22.9237Z" fill="url(#paint2_linear_12_22539)"/>
<path d="M26.3409 15.0528L12.653 7.2887C11.8091 6.82096 11.1534 6.91529 10.6853 7.38427L22.4091 18.992L26.3409 15.0528Z" fill="url(#paint3_linear_12_22539)"/>
<path opacity="0.2" d="M26.2547 22.8296L12.6753 30.5261C11.9261 30.9954 11.2701 30.9022 10.8013 30.528L10.7076 30.6217L10.8015 30.7154C11.2703 31.0897 11.9263 31.1829 12.6755 30.7135L26.2547 22.8296Z" fill="white"/>
<path opacity="0.12" d="M10.7069 30.528C10.4255 30.2471 10.3314 29.7788 10.3308 29.2166L10.3309 29.3102C10.3314 29.8724 10.5193 30.3407 10.8007 30.6217L10.8006 30.5279L10.7069 30.528ZM30.9365 20.2013L26.254 22.8295L26.3478 22.9232L30.9366 20.2951C31.5923 19.9197 31.8729 19.4509 31.8724 18.9823C31.8729 19.4509 31.4985 19.8261 30.9365 20.2013Z" fill="white"/>
<path opacity="0.25" d="M12.6522 7.38268L30.934 17.766C31.4966 18.1403 31.8718 18.5147 31.8722 18.9832C31.8718 18.5147 31.5902 18.0465 30.9339 17.6724L12.6521 7.28895C11.3395 6.54061 10.3094 7.10382 10.3108 8.60307L10.3109 8.69674C10.3095 7.29121 11.3396 6.63433 12.6522 7.38268Z" fill="black"/>
<path d="M45.0347 7.72645L44.292 7.72717C44.248 7.51359 44.1708 7.32599 44.0609 7.16443C43.9529 7.00281 43.821 6.86719 43.6652 6.75749C43.5113 6.64585 43.3407 6.56219 43.1529 6.50647C42.9651 6.45075 42.7695 6.42297 42.5658 6.42317C42.1945 6.42353 41.8582 6.51767 41.5569 6.70562C41.2577 6.89358 41.0193 7.17033 40.842 7.53583C40.6667 7.90137 40.5792 8.34964 40.5797 8.8807C40.5802 9.41176 40.6685 9.85983 40.8446 10.225C41.0226 10.5902 41.2614 10.8665 41.5611 11.0538C41.8628 11.2412 42.1993 11.3347 42.5706 11.3344C42.7742 11.3342 42.9698 11.306 43.1574 11.25C43.345 11.1939 43.5157 11.1109 43.6692 11.0009C43.8249 10.889 43.9565 10.7521 44.0642 10.5903C44.1739 10.4265 44.2505 10.2387 44.2943 10.027L45.0368 10.0264C44.9813 10.3398 44.8798 10.6205 44.7323 10.8681C44.5848 11.1158 44.4013 11.3266 44.1818 11.5005C43.9624 11.6725 43.7159 11.8035 43.4426 11.8935C43.1711 11.9837 42.8807 12.0289 42.5713 12.0292C42.0481 12.0296 41.5829 11.9023 41.1754 11.6471C40.7679 11.392 40.447 11.029 40.2131 10.5581C39.9789 10.0871 39.8617 9.52824 39.8611 8.88137C39.8605 8.23456 39.9767 7.67541 40.2098 7.20402C40.4429 6.73264 40.763 6.36899 41.1701 6.11309C41.5771 5.85714 42.0421 5.72891 42.5652 5.72839C42.8746 5.72814 43.1652 5.77276 43.4367 5.86233C43.7104 5.95189 43.9571 6.08346 44.1769 6.25694C44.3965 6.42841 44.5804 6.63784 44.7284 6.88526C44.8764 7.13069 44.9785 7.41108 45.0347 7.72645Z" fill="black"/>
<path d="M46.1429 11.942L46.1384 7.34228L46.8452 7.34156L46.8471 9.34198L47.3142 9.34152L48.9655 7.33956L49.8758 7.33868L48.0211 9.55649L49.9041 11.9384L48.9937 11.9393L47.4826 10.0002L46.8477 10.0008L46.8496 11.9414L46.1429 11.942Z" fill="black"/>
<path d="M52.0259 12.0441C51.7347 12.0443 51.4699 11.9897 51.2323 11.8801C50.9946 11.7686 50.8059 11.608 50.6659 11.3985C50.5259 11.1871 50.4558 10.9316 50.4556 10.6321C50.4553 10.3686 50.507 10.1549 50.6106 9.99112C50.7143 9.82529 50.8529 9.69542 51.0265 9.60144C51.2001 9.50741 51.3917 9.43736 51.6012 9.39124C51.8128 9.34312 52.0254 9.30496 52.239 9.27682C52.5184 9.24062 52.7449 9.21345 52.9184 9.19532C53.0941 9.17519 53.2219 9.14212 53.3021 9.0961C53.3837 9.05014 53.4248 8.97023 53.4243 8.85643V8.83245C53.4243 8.53701 53.3431 8.3075 53.1814 8.14394C53.0217 7.98037 52.7788 7.89877 52.4532 7.89908C52.1158 7.89938 51.8513 7.97354 51.6597 8.12144C51.4683 8.26934 51.3338 8.42721 51.2561 8.59499L50.5851 8.35608C50.7046 8.07646 50.864 7.85866 51.0636 7.70275C51.2651 7.54483 51.4846 7.43483 51.7219 7.37274C51.9617 7.3086 52.1969 7.27645 52.4285 7.27625C52.5764 7.27609 52.7464 7.29386 52.938 7.32966C53.1316 7.3634 53.3185 7.43411 53.4982 7.5417C53.68 7.64934 53.8305 7.81193 53.9507 8.02941C54.0708 8.2469 54.1309 8.53834 54.1314 8.90368L54.134 11.9342L53.4274 11.9349L53.4268 11.312L53.3909 11.3121C53.3431 11.4119 53.263 11.5188 53.1516 11.6327C53.0401 11.7466 52.8912 11.8436 52.7058 11.9236C52.5199 12.0037 52.2935 12.0438 52.0259 12.0441ZM52.1332 11.4091C52.4126 11.4088 52.6483 11.3537 52.8399 11.2437C53.0335 11.1338 53.1788 10.9919 53.2764 10.8181C53.3765 10.6443 53.4258 10.4616 53.4258 10.2699L53.4253 9.62306C53.395 9.659 53.3293 9.69203 53.2276 9.72207C53.128 9.75011 53.0119 9.77517 52.8804 9.7973C52.7505 9.81738 52.6237 9.83546 52.4999 9.85153C52.3782 9.86566 52.2796 9.87772 52.2036 9.88779C52.0202 9.91193 51.8482 9.95101 51.689 10.005C51.5308 10.0571 51.4033 10.1361 51.3056 10.242C51.2099 10.3459 51.1621 10.4877 51.1623 10.6674C51.1625 10.9129 51.2535 11.0985 51.4354 11.2241C51.6192 11.3477 51.8518 11.4094 52.1332 11.4091Z" fill="black"/>
<path d="M58.9654 7.32986L58.9695 11.9297L58.2628 11.9303L58.2587 7.33058L58.9654 7.32986ZM58.6916 9.52225L58.6927 10.181C58.533 10.2411 58.3743 10.2942 58.2166 10.3402C58.0589 10.3843 57.8931 10.4194 57.7195 10.4455C57.5459 10.4696 57.3554 10.4818 57.1474 10.482C56.6267 10.4825 56.2081 10.3422 55.8923 10.061C55.5785 9.77979 55.4214 9.35766 55.4209 8.7947L55.4193 7.32134L56.1265 7.32062L56.1275 8.79399C56.128 9.0296 56.1732 9.22321 56.2631 9.37481C56.3529 9.52646 56.4752 9.63913 56.6287 9.71288C56.7828 9.78662 56.9553 9.82334 57.1469 9.82319C57.4463 9.82288 57.7169 9.79566 57.9583 9.74153C58.2017 9.6854 58.4462 9.61232 58.6916 9.52225Z" fill="black"/>
<path d="M61.6204 12.0348C61.3292 12.0351 61.0642 11.9805 60.8269 11.8709C60.5892 11.7593 60.4002 11.5988 60.2605 11.3893C60.1203 11.1778 60.0504 10.9223 60.0499 10.6228C60.0499 10.3593 60.1013 10.1457 60.205 9.98189C60.3088 9.81607 60.4474 9.68619 60.621 9.59216C60.7946 9.49818 60.9861 9.42813 61.1957 9.38202C61.4072 9.3339 61.6198 9.29574 61.8335 9.2676C62.1128 9.23139 62.3393 9.20422 62.5129 9.18604C62.6891 9.16597 62.8164 9.13289 62.8965 9.08688C62.9782 9.04086 63.0193 8.96101 63.0187 8.84721V8.82322C63.0187 8.52778 62.9376 8.29822 62.7758 8.13471C62.6156 7.97115 62.3732 7.88954 62.0476 7.88985C61.7102 7.89016 61.4458 7.96426 61.2542 8.11222C61.0626 8.26012 60.9281 8.41798 60.8506 8.58576L60.1793 8.34681C60.299 8.06718 60.4587 7.84943 60.658 7.69352C60.8593 7.53561 61.0791 7.4256 61.3163 7.36346C61.5562 7.29937 61.7919 7.26723 62.023 7.26697C62.1709 7.26681 62.3409 7.28463 62.5324 7.32038C62.726 7.35417 62.913 7.42483 63.0927 7.53247C63.2745 7.64011 63.425 7.80265 63.5451 8.02019C63.6653 8.23768 63.7254 8.52906 63.7259 8.8944L63.7285 11.925L63.0218 11.9257L63.0213 11.3028L62.9854 11.3028C62.9376 11.4027 62.8575 11.5096 62.7461 11.6235C62.6346 11.7374 62.4857 11.8344 62.3003 11.9144C62.1144 11.9944 61.8879 12.0346 61.6204 12.0348ZM61.7277 11.3998C62.0071 11.3996 62.2428 11.3445 62.4343 11.2345C62.6279 11.1245 62.7733 10.9826 62.8708 10.8088C62.971 10.635 63.0203 10.4523 63.0203 10.2606L63.0198 9.61383C62.9895 9.64978 62.9237 9.6828 62.8221 9.71284C62.7224 9.74088 62.6064 9.76594 62.4749 9.78803C62.345 9.80811 62.2181 9.82623 62.0944 9.84231C61.9727 9.85638 61.8741 9.86845 61.798 9.87851C61.6142 9.90265 61.4427 9.94173 61.283 9.99581C61.1253 10.0479 60.9979 10.1269 60.8999 10.2328C60.8043 10.3366 60.7566 10.4784 60.7566 10.6581C60.7571 10.9037 60.848 11.0893 61.0298 11.2149C61.2136 11.3385 61.4463 11.4002 61.7277 11.3998Z" fill="black"/>
<path d="M64.3886 7.98347L64.3881 7.32464L68.1251 7.32104L68.1257 7.97988L66.6163 7.98131L66.6204 11.9223L65.9138 11.9229L65.9097 7.98203L64.3886 7.98347Z" fill="black"/>
<path d="M69.7686 8.98447L71.0864 8.98324C71.6256 8.98273 72.038 9.11907 72.3235 9.39233C72.6096 9.66554 72.7524 10.0118 72.7529 10.431C72.7534 10.7066 72.6897 10.9572 72.5618 11.1829C72.4345 11.4066 72.247 11.5854 71.9995 11.7195C71.752 11.8515 71.4485 11.9177 71.089 11.918L69.1606 11.9198L69.1565 7.32006L69.8631 7.3194L69.8667 11.2603L71.0885 11.2591C71.3678 11.2589 71.5979 11.1848 71.7771 11.0369C71.9569 10.889 72.0462 10.6993 72.0462 10.4676C72.0457 10.2241 71.9558 10.0255 71.7761 9.87199C71.5964 9.71844 71.3668 9.64176 71.0869 9.64207L69.7697 9.6433L69.7686 8.98447Z" fill="black"/>
<path d="M76.2018 11.9131L76.1971 7.31326L78.0783 7.31146C78.5728 7.311 78.9667 7.42244 79.2584 7.64573C79.5496 7.86907 79.6959 8.16442 79.6965 8.53176C79.6965 8.81123 79.6138 9.02789 79.4484 9.1818C79.2825 9.33371 79.0704 9.43673 78.8106 9.49086C78.9806 9.51469 79.1454 9.57441 79.3051 9.67009C79.4669 9.76576 79.6009 9.89738 79.7067 10.065C79.8125 10.2306 79.8659 10.4341 79.8659 10.6757C79.8664 10.9113 79.8064 11.122 79.6867 11.3078C79.567 11.4935 79.396 11.6405 79.1721 11.7485C78.9487 11.8565 78.6812 11.9106 78.37 11.911L76.2018 11.9131ZM76.8719 11.2656L78.3694 11.2641C78.6129 11.2639 78.8034 11.2058 78.941 11.0899C79.0787 10.9739 79.1475 10.8162 79.1475 10.6166C79.147 10.3789 79.0781 10.1924 78.94 10.0567C78.8024 9.9191 78.6113 9.85044 78.3679 9.85065L76.8704 9.85209L76.8719 11.2656ZM76.8699 9.24117L78.0798 9.24004C78.2693 9.23984 78.4321 9.21375 78.5682 9.16167C78.7038 9.10765 78.8075 9.03169 78.8789 8.93381C78.9528 8.83393 78.9898 8.71607 78.9898 8.58034C78.9893 8.38668 78.9087 8.23503 78.7464 8.12539C78.5846 8.01374 78.3623 7.95807 78.0788 7.95833L76.8689 7.95946L76.8699 9.24117Z" fill="black"/>
<defs>
<linearGradient id="paint0_linear_12_22539" x1="21.3683" y1="8.41425" x2="5.65742" y2="24.1543" gradientUnits="userSpaceOnUse">
<stop stop-color="#00A0FF"/>
<stop offset="0.007" stop-color="#00A1FF"/>
<stop offset="0.26" stop-color="#00BEFF"/>
<stop offset="0.512" stop-color="#00D2FF"/>
<stop offset="0.76" stop-color="#00DFFF"/>
<stop offset="1" stop-color="#00E3FF"/>
</linearGradient>
<linearGradient id="paint1_linear_12_22539" x1="32.6546" y1="18.9829" x2="9.98153" y2="19.0046" gradientUnits="userSpaceOnUse">
<stop stop-color="#FFE000"/>
<stop offset="0.409" stop-color="#FFBD00"/>
<stop offset="0.775" stop-color="#FFA500"/>
<stop offset="1" stop-color="#FF9C00"/>
</linearGradient>
<linearGradient id="paint2_linear_12_22539" x1="24.2168" y1="21.1416" x2="2.91262" y2="42.4867" gradientUnits="userSpaceOnUse">
<stop stop-color="#FF3A44"/>
<stop offset="1" stop-color="#C31162"/>
</linearGradient>
<linearGradient id="paint3_linear_12_22539" x1="7.77102" y1="0.430646" x2="17.3031" y2="9.9444" gradientUnits="userSpaceOnUse">
<stop stop-color="#32A071"/>
<stop offset="0.069" stop-color="#2DA771"/>
<stop offset="0.476" stop-color="#15CF74"/>
<stop offset="0.801" stop-color="#06E775"/>
<stop offset="1" stop-color="#00F076"/>
</linearGradient>
</defs>
</svg>
