<svg width="14" height="15" viewBox="0 0 14 15" fill="none" xmlns="http://www.w3.org/2000/svg">
<rect y="0.319824" width="14" height="14" rx="2.82721" fill="#7780CE"/>
<g filter="url(#filter0_d_20_1085951)">
<mask id="path-2-outside-1_20_1085951" maskUnits="userSpaceOnUse" x="1.80068" y="2.11987" width="10" height="9" fill="black">
<rect fill="white" x="1.80068" y="2.11987" width="10" height="9"/>
<path fill-rule="evenodd" clip-rule="evenodd" d="M6.60776 3.2296C6.64514 3.16175 6.71471 3.11987 6.79006 3.11987C7.19606 3.11987 7.56278 3.32789 7.8235 3.60998C8.08303 3.89079 8.25983 4.26902 8.25983 4.64431V5.73102L9.21518 5.72121L10.1705 5.7114C10.2242 5.71141 10.2799 5.71688 10.3216 5.7212C10.3245 5.7215 10.3273 5.72186 10.3301 5.72227C10.8653 5.80082 11.2796 6.26738 11.1879 6.8198L10.6295 10.1511C10.5501 10.6378 10.0957 10.9645 9.61097 10.9598H5.11032C5.09815 10.9598 5.08623 10.9588 5.07463 10.9567C5.06303 10.9588 5.0511 10.9598 5.03893 10.9598H3.85052C3.25308 10.9598 2.80068 10.4098 2.80068 9.77512V7.35345C2.80068 6.71878 3.25308 6.16874 3.85052 6.16874H4.98847L6.60776 3.2296ZM5.32029 6.44435L6.90707 3.56422C7.13206 3.59783 7.34874 3.72571 7.52035 3.91138C7.72274 4.13037 7.8399 4.40547 7.8399 4.64431V5.95097C7.8399 6.0091 7.8623 6.06482 7.90213 6.10572C7.94196 6.14662 7.9959 6.16931 8.05194 6.16873L10.1705 6.14697L10.1715 6.14697C10.2005 6.14703 10.2353 6.15002 10.2753 6.15413C10.6276 6.20777 10.8165 6.48894 10.7741 6.74557M10.7741 6.74557L10.2156 10.0775L10.2155 10.0786C10.1771 10.3143 9.93511 10.5278 9.61421 10.5243L5.32029 10.5243V6.44435M4.90035 10.5243V6.6043H3.85052C3.52411 6.6043 3.22062 6.91666 3.22062 7.35345V9.77512C3.22062 10.2119 3.52411 10.5243 3.85052 10.5243H4.90035Z"/>
</mask>
<path fill-rule="evenodd" clip-rule="evenodd" d="M6.60776 3.2296C6.64514 3.16175 6.71471 3.11987 6.79006 3.11987C7.19606 3.11987 7.56278 3.32789 7.8235 3.60998C8.08303 3.89079 8.25983 4.26902 8.25983 4.64431V5.73102L9.21518 5.72121L10.1705 5.7114C10.2242 5.71141 10.2799 5.71688 10.3216 5.7212C10.3245 5.7215 10.3273 5.72186 10.3301 5.72227C10.8653 5.80082 11.2796 6.26738 11.1879 6.8198L10.6295 10.1511C10.5501 10.6378 10.0957 10.9645 9.61097 10.9598H5.11032C5.09815 10.9598 5.08623 10.9588 5.07463 10.9567C5.06303 10.9588 5.0511 10.9598 5.03893 10.9598H3.85052C3.25308 10.9598 2.80068 10.4098 2.80068 9.77512V7.35345C2.80068 6.71878 3.25308 6.16874 3.85052 6.16874H4.98847L6.60776 3.2296ZM5.32029 6.44435L6.90707 3.56422C7.13206 3.59783 7.34874 3.72571 7.52035 3.91138C7.72274 4.13037 7.8399 4.40547 7.8399 4.64431V5.95097C7.8399 6.0091 7.8623 6.06482 7.90213 6.10572C7.94196 6.14662 7.9959 6.16931 8.05194 6.16873L10.1705 6.14697L10.1715 6.14697C10.2005 6.14703 10.2353 6.15002 10.2753 6.15413C10.6276 6.20777 10.8165 6.48894 10.7741 6.74557M10.7741 6.74557L10.2156 10.0775L10.2155 10.0786C10.1771 10.3143 9.93511 10.5278 9.61421 10.5243L5.32029 10.5243V6.44435M4.90035 10.5243V6.6043H3.85052C3.52411 6.6043 3.22062 6.91666 3.22062 7.35345V9.77512C3.22062 10.2119 3.52411 10.5243 3.85052 10.5243H4.90035Z" fill="white"/>
<path d="M6.60776 3.2296L6.73914 3.30198L6.73914 3.30198L6.60776 3.2296ZM7.8235 3.60998L7.93365 3.50817V3.50817L7.8235 3.60998ZM8.25983 5.73102H8.10983C8.10983 5.77107 8.12585 5.80946 8.15431 5.83763C8.18278 5.86581 8.22132 5.88143 8.26137 5.88102L8.25983 5.73102ZM10.1705 5.7114L10.1706 5.56139L10.169 5.56141L10.1705 5.7114ZM10.3216 5.7212L10.3371 5.572H10.3371L10.3216 5.7212ZM10.3301 5.72227L10.3083 5.87068L10.3084 5.87068L10.3301 5.72227ZM11.1879 6.8198L11.3359 6.84459L11.3359 6.84434L11.1879 6.8198ZM10.6295 10.1511L10.4816 10.1263L10.4815 10.1269L10.6295 10.1511ZM9.61097 10.9598L9.61243 10.8098H9.61097V10.9598ZM5.07463 10.9567L5.10086 10.809C5.08351 10.8059 5.06575 10.8059 5.0484 10.809L5.07463 10.9567ZM4.98847 6.16874V6.31874C5.04314 6.31874 5.09348 6.289 5.11985 6.24113L4.98847 6.16874ZM5.32029 6.44435L5.18891 6.37197C5.17669 6.39414 5.17029 6.41904 5.17029 6.44435H5.32029ZM6.90707 3.56422L6.92923 3.41586C6.8672 3.4066 6.80595 3.4369 6.77569 3.49184L6.90707 3.56422ZM7.52035 3.91138L7.41019 4.01319L7.41019 4.01319L7.52035 3.91138ZM7.90213 6.10572L7.79466 6.21036V6.21036L7.90213 6.10572ZM8.05194 6.16873L8.05348 6.31872H8.05348L8.05194 6.16873ZM10.1705 6.14697L10.1707 5.99696L10.169 5.99697L10.1705 6.14697ZM10.1715 6.14697L10.1718 5.99697H10.1716L10.1715 6.14697ZM10.2753 6.15413L10.2979 6.00567L10.2907 6.00492L10.2753 6.15413ZM10.7741 6.74557L10.9221 6.77037L10.9221 6.76999L10.7741 6.74557ZM10.2156 10.0775L10.0677 10.0528L10.0676 10.0531L10.2156 10.0775ZM10.2155 10.0786L10.0675 10.0541L10.0674 10.0546L10.2155 10.0786ZM9.61421 10.5243L9.61583 10.3743H9.61421L9.61421 10.5243ZM5.32029 10.5243H5.17029C5.17029 10.6071 5.23745 10.6743 5.32029 10.6743L5.32029 10.5243ZM4.90035 6.6043H5.05035C5.05035 6.52145 4.9832 6.4543 4.90035 6.4543V6.6043ZM4.90035 10.5243V10.6743C4.9832 10.6743 5.05035 10.6071 5.05035 10.5243H4.90035ZM9.21518 5.72121L9.21364 5.57122L9.21518 5.72121ZM6.79006 2.96987C6.65816 2.96987 6.53921 3.04317 6.47638 3.15722L6.73914 3.30198C6.75107 3.28033 6.77127 3.26987 6.79006 3.26987V2.96987ZM7.93365 3.50817C7.6524 3.20386 7.24821 2.96987 6.79006 2.96987V3.26987C7.14391 3.26987 7.47317 3.45192 7.71334 3.71179L7.93365 3.50817ZM8.40983 4.64431C8.40983 4.22381 8.21324 3.81067 7.93365 3.50817L7.71334 3.71179C7.95283 3.97091 8.10983 4.31423 8.10983 4.64431H8.40983ZM8.40983 5.73102V4.64431H8.10983V5.73102H8.40983ZM10.3371 5.572C10.2956 5.5677 10.2329 5.56141 10.1706 5.5614L10.1705 5.8614C10.2156 5.86141 10.2643 5.86607 10.3061 5.8704L10.3371 5.572ZM10.3519 5.57386C10.347 5.57314 10.342 5.57252 10.3371 5.572L10.3061 5.8704C10.3069 5.87048 10.3076 5.87057 10.3083 5.87068L10.3519 5.57386ZM11.3359 6.84434C11.4437 6.19474 10.955 5.66237 10.3519 5.57386L10.3084 5.87068C10.7757 5.93927 11.1155 6.34003 11.04 6.79525L11.3359 6.84434ZM10.7775 10.1759L11.3359 6.84459L11.04 6.795L10.4816 10.1263L10.7775 10.1759ZM9.6095 11.1098C10.1568 11.1151 10.6844 10.7459 10.7776 10.1752L10.4815 10.1269C10.4158 10.5296 10.0347 10.8139 9.61243 10.8098L9.6095 11.1098ZM5.11032 11.1098H9.61097V10.8098H5.11032V11.1098ZM5.0484 11.1044C5.0686 11.108 5.08931 11.1098 5.11032 11.1098V10.8098C5.107 10.8098 5.10385 10.8095 5.10086 10.809L5.0484 11.1044ZM5.03893 11.1098C5.05995 11.1098 5.08065 11.108 5.10086 11.1044L5.0484 10.809C5.0454 10.8095 5.04225 10.8098 5.03893 10.8098V11.1098ZM3.85052 11.1098H5.03893V10.8098H3.85052V11.1098ZM2.65068 9.77512C2.65068 10.4716 3.1507 11.1098 3.85052 11.1098V10.8098C3.35546 10.8098 2.95068 10.3479 2.95068 9.77512H2.65068ZM2.65068 7.35345V9.77512H2.95068V7.35345H2.65068ZM3.85052 6.01874C3.1507 6.01874 2.65068 6.65693 2.65068 7.35345H2.95068C2.95068 6.78063 3.35546 6.31874 3.85052 6.31874V6.01874ZM4.98847 6.01874H3.85052V6.31874H4.98847V6.01874ZM6.47638 3.15722L4.85709 6.09636L5.11985 6.24113L6.73914 3.30198L6.47638 3.15722ZM5.45167 6.51674L7.03845 3.6366L6.77569 3.49184L5.18891 6.37197L5.45167 6.51674ZM6.8849 3.71257C7.06947 3.74014 7.25674 3.84716 7.41019 4.01319L7.63051 3.80957C7.44074 3.60425 7.19466 3.45551 6.92923 3.41586L6.8849 3.71257ZM7.41019 4.01319C7.59242 4.21036 7.6899 4.45054 7.6899 4.64431H7.9899C7.9899 4.36039 7.85306 4.05037 7.63051 3.80957L7.41019 4.01319ZM7.6899 4.64431V5.95097H7.9899V4.64431H7.6899ZM7.6899 5.95097C7.6899 6.04739 7.72701 6.14089 7.79466 6.21036L8.0096 6.00107C7.9976 5.98875 7.9899 5.97081 7.9899 5.95097H7.6899ZM7.79466 6.21036C7.8625 6.28003 7.95558 6.31973 8.05348 6.31872L8.0504 6.01874C8.03622 6.01889 8.02142 6.01321 8.0096 6.00107L7.79466 6.21036ZM8.05348 6.31872L10.1721 6.29696L10.169 5.99697L8.0504 6.01874L8.05348 6.31872ZM10.1704 6.29697L10.1713 6.29697L10.1716 5.99697L10.1707 5.99697L10.1704 6.29697ZM10.1711 6.29697C10.1919 6.29701 10.22 6.29924 10.26 6.30335L10.2907 6.00492C10.2507 6.00081 10.2092 5.99705 10.1718 5.99697L10.1711 6.29697ZM10.2528 6.30242C10.5337 6.3452 10.6531 6.5578 10.6261 6.72115L10.9221 6.76999C10.9799 6.42008 10.7216 6.07034 10.2979 6.00584L10.2528 6.30242ZM10.6262 6.72077L10.0677 10.0528L10.3636 10.1023L10.9221 6.77037L10.6262 6.72077ZM10.0676 10.0531L10.0675 10.0541L10.3634 10.1031L10.3636 10.102L10.0676 10.0531ZM10.0674 10.0546C10.0425 10.2078 9.87225 10.3771 9.61583 10.3743L9.61259 10.6743C9.99797 10.6784 10.3118 10.4207 10.3635 10.1027L10.0674 10.0546ZM5.47029 10.5243V6.44435H5.17029V10.5243H5.47029ZM4.75035 6.6043V10.5243H5.05035V6.6043H4.75035ZM3.85052 6.7543H4.90035V6.4543H3.85052V6.7543ZM3.37062 7.35345C3.37062 6.98079 3.62449 6.7543 3.85052 6.7543V6.4543C3.42372 6.4543 3.07062 6.85252 3.07062 7.35345H3.37062ZM3.37062 9.77512V7.35345H3.07062V9.77512H3.37062ZM3.85052 10.3743C3.62449 10.3743 3.37062 10.1478 3.37062 9.77512H3.07062C3.07062 10.276 3.42372 10.6743 3.85052 10.6743V10.3743ZM4.90035 10.3743H3.85052V10.6743H4.90035V10.3743ZM9.61421 10.3743L5.32029 10.3743L5.32029 10.6743L9.61421 10.6743L9.61421 10.3743ZM10.169 5.56141L9.21364 5.57122L9.21672 5.8712L10.1721 5.86139L10.169 5.56141ZM9.21364 5.57122L8.25829 5.58103L8.26137 5.88102L9.21672 5.8712L9.21364 5.57122Z" fill="white" mask="url(#path-2-outside-1_20_1085951)"/>
</g>
<defs>
<filter id="filter0_d_20_1085951" x="1.94388" y="2.96997" width="10.1138" height="10.2603" filterUnits="userSpaceOnUse" color-interpolation-filters="sRGB">
<feFlood flood-opacity="0" result="BackgroundImageFix"/>
<feColorMatrix in="SourceAlpha" type="matrix" values="0 0 0 0 0 0 0 0 0 0 0 0 0 0 0 0 0 0 127 0" result="hardAlpha"/>
<feOffset dy="1.41361"/>
<feGaussianBlur stdDeviation="0.353401"/>
<feComposite in2="hardAlpha" operator="out"/>
<feColorMatrix type="matrix" values="0 0 0 0 0 0 0 0 0 0 0 0 0 0 0 0 0 0 0.16 0"/>
<feBlend mode="normal" in2="BackgroundImageFix" result="effect1_dropShadow_20_1085951"/>
<feBlend mode="normal" in="SourceGraphic" in2="effect1_dropShadow_20_1085951" result="shape"/>
</filter>
</defs>
</svg>
