<svg width="15" height="16" viewBox="0 0 15 16" fill="none" xmlns="http://www.w3.org/2000/svg">
<g clip-path="url(#clip0_12_20955)">
<path d="M7.10934 14.8821C6.06164 13.9971 5.09051 13.0269 4.20612 11.9817C2.87895 10.412 1.30292 8.07426 1.30292 5.84661C1.30174 3.52004 2.71657 1.42204 4.88719 0.531648C7.05781 -0.358747 9.55638 0.13396 11.217 1.77985C12.3089 2.85639 12.9207 4.32077 12.9158 5.84661C12.9158 8.07426 11.3397 10.412 10.0125 11.9817C9.12815 13.0269 8.15705 13.9971 7.10934 14.8821ZM7.10934 3.3824C6.2203 3.3824 5.39879 3.8521 4.95426 4.61451C4.50975 5.37694 4.50975 6.31631 4.95426 7.07872C5.39879 7.84115 6.2203 8.31082 7.10934 8.31082C8.48368 8.31082 9.5978 7.20757 9.5978 5.84661C9.5978 4.48568 8.48368 3.3824 7.10934 3.3824Z" fill="#F51047"/>
</g>
<defs>
<clipPath id="clip0_12_20955">
<rect width="11.6129" height="15" fill="white" transform="translate(1.30292 0.09375)"/>
</clipPath>
</defs>
</svg>
