<svg width="26" height="20" viewBox="0 0 26 20" fill="none" xmlns="http://www.w3.org/2000/svg">
<path d="M2.7009 0.712727C3.0883 0.319099 3.72144 0.314046 4.11507 0.701441L21.2205 17.536C21.6141 17.9234 21.6192 18.5566 21.2318 18.9502C20.8444 19.3438 20.2113 19.3489 19.8176 18.9615L2.71219 2.1269C2.31856 1.7395 2.31351 1.10636 2.7009 0.712727Z" fill="#233572"/>
<path d="M21.2327 0.712727C20.8453 0.319099 20.2122 0.314046 19.8185 0.701441L2.71307 17.536C2.31944 17.9234 2.31439 18.5566 2.70179 18.9502C3.08918 19.3438 3.72233 19.3489 4.11595 18.9615L21.2214 2.1269C21.615 1.7395 21.6201 1.10636 21.2327 0.712727Z" fill="#233572"/>
</svg>
