<svg width="14" height="18" viewBox="0 0 14 18" fill="none" xmlns="http://www.w3.org/2000/svg">
<rect y="0.319824" width="14" height="14" rx="2.99277" fill="#21AB92"/>
<g filter="url(#filter0_d_20_1085972)">
<path d="M3.52721 6.04407C3.52721 4.83972 3.52721 4.23755 3.90431 3.8634C4.28141 3.48926 4.88833 3.48926 6.10219 3.48926H7.81884C9.0327 3.48926 9.63962 3.48926 10.0167 3.8634C10.3938 4.23755 10.3938 4.83972 10.3938 6.04407V8.95128C10.3938 10.0938 10.3938 10.6651 10.0315 10.8398C9.66914 11.0146 9.21639 10.6616 8.31089 9.95573L8.0211 9.72982C7.51195 9.33291 7.25738 9.13445 6.96052 9.13445C6.66365 9.13445 6.40908 9.33291 5.89993 9.72982L5.61014 9.95573C4.70464 10.6616 4.25189 11.0146 3.88955 10.8398C3.52721 10.6651 3.52721 10.0938 3.52721 8.95128V6.04407Z" stroke="white" shape-rendering="crispEdges"/>
</g>
<defs>
<filter id="filter0_d_20_1085972" x="0.204391" y="2.98926" width="13.5123" height="14.0409" filterUnits="userSpaceOnUse" color-interpolation-filters="sRGB">
<feFlood flood-opacity="0" result="BackgroundImageFix"/>
<feColorMatrix in="SourceAlpha" type="matrix" values="0 0 0 0 0 0 0 0 0 0 0 0 0 0 0 0 0 0 127 0" result="hardAlpha"/>
<feOffset dy="2.82282"/>
<feGaussianBlur stdDeviation="1.41141"/>
<feComposite in2="hardAlpha" operator="out"/>
<feColorMatrix type="matrix" values="0 0 0 0 0 0 0 0 0 0 0 0 0 0 0 0 0 0 0.25 0"/>
<feBlend mode="normal" in2="BackgroundImageFix" result="effect1_dropShadow_20_1085972"/>
<feBlend mode="normal" in="SourceGraphic" in2="effect1_dropShadow_20_1085972" result="shape"/>
</filter>
</defs>
</svg>
